<svg width="42" height="42" viewBox="0 0 42 42" fill="none" xmlns="http://www.w3.org/2000/svg">
<path d="M33.3174 0.133106C30.851 0.577587 28.2887 2.23349 27.4869 3.8981C27.2777 4.33387 27.2429 4.50817 27.2342 5.18796C27.2342 5.96362 27.2342 5.98105 27.8268 7.33192C28.4543 8.79608 28.5066 9.07497 28.2451 9.63274C28.1318 9.86806 26.8768 11.1841 24.4976 13.5546L20.9156 17.1279L17.046 13.2496L13.1852 9.37129L12.7755 8.54334C12.5577 8.09015 12.3049 7.46264 12.2265 7.1489C12.0609 6.51268 12.026 5.10952 12.148 4.14213L12.2178 3.53206L11.5815 2.92199C9.89078 1.3271 7.71197 0.377136 5.3327 0.211544C4.44374 0.141823 4.191 0.23769 3.75523 0.760605C3.57221 0.987202 3.48506 1.17894 3.48506 1.38811C3.48506 1.65828 3.61579 1.82387 4.79235 3.00914L6.09964 4.31644L5.12353 5.30126L4.13871 6.27737L2.83142 4.97008C1.64614 3.79352 1.48055 3.66279 1.21038 3.66279C1.00121 3.66279 0.809475 3.74994 0.582878 3.93296C0.0599619 4.36872 -0.035906 4.62147 0.0338162 5.51043C0.199406 7.88969 1.14937 10.0685 2.74426 11.7593L3.35433 12.3955L3.9644 12.3258C4.29558 12.2822 5.01023 12.2473 5.53315 12.256C6.65742 12.256 7.3895 12.4478 8.49634 13.0143C9.1587 13.3454 9.41144 13.5808 13.0719 17.2325L16.9501 21.0933L13.2026 24.8235C9.22842 28.7802 9.10641 28.8848 7.92985 29.2421C7.65967 29.3205 6.91016 29.4164 6.23037 29.46C4.44374 29.5646 3.36305 29.9567 2.17777 30.9416C1.22781 31.7347 0.417288 33.0507 0.129684 34.2708C-0.0620518 35.0726 -0.035906 36.4322 0.17326 37.2689C0.722322 39.4302 2.3085 41.0687 4.53089 41.7659C5.06252 41.9315 5.37627 41.9664 6.23037 41.9664C7.08447 41.9664 7.39822 41.9315 7.92985 41.7659C9.76005 41.1907 11.1458 40.0142 11.904 38.3757C12.3049 37.539 12.4444 36.8767 12.5402 35.4299C12.6274 34.0181 12.8104 33.4603 13.4553 32.5713C13.6645 32.275 15.425 30.4535 17.3598 28.5187L20.872 25.0152L24.759 28.9109L28.646 32.8154L29.0557 33.6433C29.2735 34.0965 29.5263 34.724 29.6047 35.0377C29.7703 35.674 29.8052 37.0684 29.6832 38.0445L29.6134 38.6546L30.2061 39.2298C31.8968 40.8421 34.1105 41.8095 36.5159 41.9838C37.3874 42.0448 37.6402 41.949 38.076 41.426C38.259 41.1994 38.3461 41.0077 38.3461 40.7985C38.3461 40.5284 38.2154 40.3628 37.0388 39.1775L35.7315 37.8702L36.7077 36.8854L37.6925 35.9093L38.9998 37.2166C40.185 38.3931 40.3506 38.5239 40.6208 38.5239C40.83 38.5239 41.0217 38.4367 41.2483 38.2537C41.7712 37.8179 41.8671 37.5652 41.8061 36.6936C41.6318 34.2882 40.6644 32.0746 39.0521 30.3838L38.4769 29.7912L37.8668 29.8609C37.5356 29.9045 36.8297 29.9393 36.298 29.9306C35.1738 29.9306 34.4417 29.7389 33.3349 29.1724C32.6812 28.8412 32.4197 28.5972 28.7332 24.9368L24.82 21.0497L28.5153 17.4155C31.095 14.8706 32.289 13.7464 32.4982 13.6766C32.9601 13.5198 33.4307 13.6243 34.6247 14.1473C36.0191 14.7573 36.5769 14.8793 37.3264 14.7312C38.0324 14.5917 38.5814 14.2867 39.2002 13.6853C40.6382 12.2822 41.5795 10.4607 41.8758 8.48233C42.0414 7.41035 42.0414 6.88744 41.8758 5.84161C41.7189 4.80449 41.4313 3.85453 41.196 3.59307C40.9433 3.31418 40.5075 3.34032 40.185 3.63664C40.0543 3.77609 39.2961 4.64761 38.5204 5.58015C37.7361 6.51268 37.0737 7.30577 37.0476 7.34063C37.0127 7.37549 36.4462 6.87001 35.7926 6.20765L34.5898 5.00494L36.4375 3.44491C37.4572 2.5821 38.3636 1.80644 38.4507 1.71057C38.6773 1.46654 38.6512 1.03078 38.3984 0.795467C37.7535 0.185398 34.9907 -0.171928 33.3174 0.133106ZM36.2893 1.54498C36.4026 1.60599 36.1237 1.88488 34.8862 2.92199C32.8729 4.61275 32.8555 4.63018 32.8555 4.97879C32.8555 5.23154 33.056 5.46685 34.7554 7.15761C35.9756 8.38646 36.7338 9.07497 36.8907 9.11855C37.0476 9.1534 37.2044 9.12726 37.3352 9.03139C37.4572 8.96167 38.1893 8.13372 38.9736 7.2099C40.6208 5.24897 40.5424 5.25768 40.5511 7.06174C40.5511 7.90712 40.5162 8.32545 40.3681 8.93552C39.88 10.9052 38.3461 13.0317 37.187 13.3454C36.6989 13.4762 36.4288 13.4065 35.0082 12.7877C33.8142 12.2648 33.7445 12.2473 33.0298 12.2473C31.6964 12.2473 31.9055 12.0817 27.6438 16.3348L23.8788 20.0911L22.9027 19.1062L21.9179 18.1301L25.5957 14.4523C29.8226 10.208 29.7616 10.2951 29.7616 8.9791C29.7529 8.26445 29.7354 8.19473 29.2038 6.97459C28.8988 6.27737 28.6286 5.54529 28.6025 5.33612C28.5327 4.71734 28.768 4.28157 29.5786 3.51463C30.6767 2.47751 31.984 1.81516 33.5092 1.51883C34.1715 1.38811 36.0453 1.40554 36.2893 1.54498ZM7.23263 1.97203C8.22617 2.27706 9.30686 2.84356 10.1261 3.4972C10.7449 3.98526 10.7972 4.05498 10.7362 4.26414C10.7013 4.38616 10.6752 5.02237 10.6839 5.6673C10.6926 6.57369 10.7362 7.00074 10.8843 7.54108C11.1196 8.43004 11.721 9.65018 12.2788 10.3735C12.5141 10.6873 16.924 15.1408 22.066 20.2828C32.0624 30.2618 31.9317 30.1398 33.4133 30.7586C34.4591 31.1943 35.1215 31.325 36.3852 31.325C37.0127 31.3338 37.6228 31.3076 37.7448 31.2728C37.9539 31.2117 38.0237 31.264 38.5117 31.8828C39.4442 33.0507 40.1589 34.6891 40.3419 36.0661L40.4116 36.6239L39.2699 35.4822C38.6424 34.8634 38.0324 34.3144 37.9104 34.2708C37.7535 34.2098 37.6053 34.2185 37.431 34.2969C37.0998 34.4364 34.1977 37.356 34.0931 37.6523C34.0408 37.7831 34.0408 37.9574 34.0931 38.0881C34.1367 38.2101 34.6857 38.8202 35.3045 39.4477L36.4462 40.5894L35.8884 40.5197C34.5114 40.3366 32.8729 39.622 31.7051 38.6894C31.0863 38.2014 31.034 38.1317 31.095 37.9225C31.1299 37.8005 31.156 37.1817 31.156 36.5629C31.1473 35.674 31.1037 35.2731 30.9556 34.6891C30.7028 33.7566 30.1189 32.5452 29.5524 31.8131C29.3171 31.4993 24.9072 27.0458 19.7652 21.9038C9.76877 11.9249 9.8995 12.0469 8.4179 11.4281C7.37207 10.9923 6.70971 10.8616 5.446 10.8616C4.82721 10.8529 4.20843 10.879 4.08641 10.9139C3.87725 10.9749 3.80753 10.9226 3.31947 10.3038C2.38694 9.13597 1.67229 7.49751 1.48927 6.12049L1.41954 5.56272L2.56124 6.70441C3.18874 7.3232 3.79881 7.87226 3.92082 7.91584C4.05155 7.96813 4.22586 7.96813 4.35659 7.91584C4.65291 7.81126 7.57252 4.90907 7.71197 4.57789C7.7904 4.40359 7.79912 4.25543 7.73811 4.09855C7.69454 3.97654 7.14547 3.36647 6.52669 2.73897L5.38499 1.59727L5.94277 1.667C6.2478 1.71057 6.82301 1.85001 7.23263 1.97203ZM16.1135 27.8651C12.0783 31.9177 11.9214 32.1007 11.4595 33.3818C11.2678 33.9048 11.2068 34.2795 11.1458 35.2992C11.0238 37.2776 10.6054 38.3147 9.53346 39.2995C7.57252 41.0949 4.67905 41.0251 2.77912 39.1339C1.84659 38.2014 1.3934 37.0946 1.3934 35.735C1.3934 34.3318 1.82916 33.286 2.83142 32.2837C3.80753 31.3163 4.9318 30.8544 6.32624 30.8544C7.15419 30.8544 8.10415 30.6888 8.8188 30.4187C9.88207 30.0265 10.4486 29.5297 14.2484 25.7211L17.9088 22.052L18.9111 23.0543L19.9133 24.0565L16.1135 27.8651Z" fill="white"/>
<path d="M6.23016 31.7532C6.082 31.8229 5.91641 31.9362 5.85541 32.0146C5.75082 32.1366 5.70725 32.1366 5.41964 32.0146C5.06232 31.8665 4.62655 31.91 4.29537 32.1192C4.03392 32.2935 3.74631 32.7554 3.74631 33.0082C3.74631 33.1563 3.69402 33.2086 3.55458 33.2086C3.26697 33.2086 2.81378 33.5136 2.61333 33.8361C2.41288 34.176 2.38673 34.6379 2.56104 34.9691C2.66562 35.1695 2.66562 35.2218 2.55232 35.309C1.9684 35.797 2.10784 37.0172 2.77892 37.3135C3.00551 37.4094 3.02294 37.4617 2.98808 37.7405C2.8835 38.4726 3.67659 39.2309 4.39996 39.1001C4.63527 39.0565 4.70499 39.0653 4.70499 39.1698C4.70499 39.379 5.21919 39.8235 5.53294 39.8845C5.96871 39.9629 6.38704 39.8584 6.65721 39.6143C6.86638 39.4226 6.90124 39.4139 7.11912 39.5272C7.79891 39.8845 8.69658 39.4052 8.85346 38.6208C8.89704 38.4203 8.95804 38.3506 9.09749 38.3506C9.36766 38.3506 9.82085 38.0456 9.9603 37.7667C10.1695 37.3484 10.2043 37.0608 10.0736 36.686C9.9603 36.3548 9.9603 36.3112 10.1172 36.1456C10.3525 35.8929 10.4832 35.4223 10.4222 35.0824C10.3525 34.7425 10.0126 34.2893 9.75985 34.2109C9.6204 34.1673 9.58554 34.0801 9.58554 33.7664C9.58554 32.9994 9.08877 32.4765 8.3654 32.4852C8.01679 32.494 7.94707 32.4591 7.82506 32.2499C7.53745 31.7444 6.77051 31.5091 6.23016 31.7532ZM6.90995 33.5224C7.11041 33.7838 7.55488 33.993 7.88606 33.993C8.06908 33.993 8.10395 34.0366 8.10395 34.2544C8.10395 34.5943 8.29568 34.9691 8.58329 35.1957L8.80117 35.37L8.61815 35.6925C8.46127 35.9452 8.43513 36.0934 8.4787 36.4768C8.52228 36.8952 8.50485 36.9562 8.35669 36.9997C8.05165 37.0956 7.59846 37.5662 7.53745 37.8277C7.48516 38.0543 7.45902 38.0717 7.26728 37.9933C6.92738 37.8713 6.60492 37.8974 6.23888 38.0892L5.89898 38.2547L5.66367 38.002C5.3935 37.7144 5.07103 37.5662 4.70499 37.5662C4.51326 37.5662 4.46096 37.5314 4.49583 37.4355C4.57426 37.2263 4.34767 36.6686 4.07749 36.4158L3.82475 36.1805L4.00777 35.8319C4.19951 35.4484 4.22565 35.1695 4.10364 34.8384C4.0252 34.6466 4.04263 34.6118 4.22565 34.5682C4.54812 34.4897 4.94902 34.1063 5.0536 33.7751C5.14075 33.5136 5.17562 33.4875 5.31506 33.5572C5.57652 33.6967 6.02971 33.6618 6.36089 33.4788C6.74436 33.2609 6.70079 33.2609 6.90995 33.5224Z" fill="white"/>
</svg>
