<svg width="52" height="52" viewBox="0 0 52 52" fill="none" xmlns="http://www.w3.org/2000/svg">
<path d="M16.3923 4.26821C12.9361 7.72426 12.1236 8.59098 12.0694 8.88349C11.9935 9.25185 12.0477 9.30602 18.5049 15.7631L25.0271 22.2852L25.5147 21.7976L26.0022 21.3209L19.935 15.2431C16.0889 11.3861 13.8679 9.08934 13.8679 8.95933C13.8679 8.69932 20.5418 1.99307 20.8885 1.89556C21.0943 1.85222 21.2568 1.94973 21.7119 2.39392L22.2752 2.94646L22.7845 2.42643L23.3045 1.90639L22.3294 0.963837C21.506 0.172955 21.2893 0.0212784 20.9968 0.0212784C20.6826 0.0212784 20.2492 0.411303 16.3923 4.26821Z" fill="white"/>
<path d="M25.0056 4.65801C22.2103 7.44235 21.9937 7.69153 21.9937 8.03822C21.9937 8.39574 22.6004 9.02412 32.8062 19.2297C42.9904 29.4137 43.6296 30.0312 43.9872 30.0312C44.3339 30.0312 44.583 29.8037 47.3674 27.0194C50.1627 24.2351 50.3794 23.9859 50.3794 23.6392C50.3794 23.2817 49.7726 22.6533 39.5668 12.4477C29.3826 2.2637 28.7434 1.64616 28.3859 1.64616C28.0392 1.64616 27.79 1.87367 25.0056 4.65801Z" fill="white"/>
<path d="M23.6077 3.13051C22.6218 4.0839 22.5026 4.35475 22.871 4.74477L23.1202 5.01562L24.2361 3.89972L25.352 2.79465L25.1137 2.54547C24.9837 2.40463 24.7887 2.29629 24.6695 2.29629C24.5503 2.29629 24.0736 2.67548 23.6077 3.13051Z" fill="white"/>
<path d="M26.2403 22.5856C25.6336 23.1923 25.1353 23.7449 25.1353 23.799C25.1353 23.9399 28.0822 26.8867 28.223 26.8867C28.3964 26.8867 30.5524 24.6766 30.5524 24.5032C30.5524 24.2866 27.7246 21.4697 27.5188 21.4697C27.4213 21.4697 26.8579 21.9681 26.2403 22.5856Z" fill="white"/>
<path d="M18.1148 32.1192L11.2676 38.9663L12.1668 39.8655L13.0552 40.7539L19.9133 33.896L26.7605 27.0489L25.8613 26.1497L24.9729 25.2613L18.1148 32.1192Z" fill="white"/>
<path d="M30.2273 26.5071L29.7397 26.9946L36.262 33.5167C42.7192 39.9738 42.7733 40.0279 43.1417 39.9521C43.4342 39.8979 44.301 39.0854 47.7571 35.6293C51.6141 31.7724 52.0041 31.3391 52.0041 31.0249C52.0041 30.7324 51.8524 30.5157 51.0615 29.6923L50.119 28.7172L49.5989 29.2373L49.0789 29.7465L49.6314 30.3098C50.0756 30.7649 50.1731 30.9274 50.1298 31.1332C50.0323 31.4799 43.3259 38.1537 43.0659 38.1537C42.9359 38.1537 40.639 35.9327 36.782 32.0866L30.704 26.0196L30.2273 26.5071Z" fill="white"/>
<path d="M48.1257 27.7891L47.0098 28.905L47.2806 29.1542C47.4756 29.3383 47.6273 29.3925 47.8007 29.3492C48.1474 29.2625 49.7292 27.6157 49.7292 27.3557C49.7292 27.2365 49.6208 27.0415 49.48 26.9115L49.2308 26.6732L48.1257 27.7891Z" fill="white"/>
<path d="M9.11183 39.2837C8.93848 39.4679 8.87347 39.6304 8.91681 39.8038C9.01432 40.1613 12.0479 43.1406 12.3188 43.1406C12.6438 43.1406 13.0447 42.6639 12.9688 42.3606C12.8713 42.0031 9.83772 39.0237 9.56686 39.0237C9.44769 39.0237 9.24184 39.1429 9.11183 39.2837Z" fill="white"/>
<path d="M4.13868 45.0144C1.47346 47.6796 0 49.2397 0 49.3697C0 49.4997 0.487541 50.0739 1.2351 50.8214C2.28603 51.8615 2.51354 52.0457 2.71939 51.9915C2.86024 51.9482 4.82124 50.0847 7.07476 47.8313L11.1593 43.736L9.71832 42.2951L8.2882 40.865L4.13868 45.0144Z" fill="white"/>
</svg>
