<svg width="52" height="53" viewBox="0 0 52 53" fill="none" xmlns="http://www.w3.org/2000/svg">
<mask id="path-1-inside-1_38_1085" fill="white">
<path d="M41.7874 1.50588C40.0214 3.391 40.1514 3.18515 40.0864 4.23605L40.0323 5.16778L33.4993 5.20028L26.9664 5.22195L24.1821 7.50793C22.6545 8.76468 21.3544 9.90225 21.3002 10.0431C21.2244 10.2273 21.2461 10.3681 21.3761 10.574C21.5602 10.8448 21.5927 10.8448 22.947 10.8773L24.3229 10.9098L24.3554 12.8599L24.3771 14.8101H23.3804C22.167 14.8209 21.4086 15.0809 20.6502 15.7418C20.1193 16.2185 20.0543 16.4135 20.3252 16.7927C20.5527 17.1177 20.9644 17.096 21.4302 16.7494C21.9178 16.3702 22.7628 16.056 23.272 16.056C24.3771 16.0668 25.168 16.4568 25.688 17.2586C25.8614 17.5402 26.1214 17.8003 26.2514 17.8328C26.3814 17.8653 27.3781 17.8978 28.4724 17.8978H30.455L31.1267 18.602C31.495 18.992 31.8851 19.3062 31.9934 19.3062C32.1017 19.3062 32.4484 19.057 32.7626 18.7645L33.3368 18.2228L33.8785 18.7645C34.1819 19.057 34.5069 19.3062 34.6044 19.3062C34.7127 19.3062 35.0703 19.0462 35.4061 18.7211L36.0237 18.1361L36.5437 18.5911L37.0637 19.0353L36.3812 19.6095L35.6986 20.1729H30.9533H26.208L25.9697 20.4438C25.8397 20.5846 25.5905 20.888 25.4063 21.1046C24.7129 21.9714 23.142 22.2314 22.0478 21.668C21.4844 21.3755 20.4443 20.4004 20.856 20.5413C20.9752 20.5846 21.2352 20.6496 21.4302 20.6821C22.0369 20.7904 22.4378 20.1837 22.0803 19.707C22.0044 19.6095 21.4194 19.3279 20.7802 19.0895C19.3718 18.5695 19.1876 18.602 18.8626 19.4579C18.0934 21.5488 18.0934 21.538 18.5484 21.8413C18.8842 22.058 19.2526 21.9497 19.4476 21.5813L19.5993 21.2888L20.2818 21.9497C20.661 22.318 21.1919 22.7297 21.4627 22.8597C23.0878 23.6506 25.1896 23.2931 26.3164 22.058L26.8581 21.473H31.5059H36.1645L36.5329 21.1805C36.7279 21.018 37.2912 20.5304 37.7896 20.0862C38.8513 19.1328 38.8947 18.9487 38.223 18.342C35.9478 16.2943 35.9262 16.2835 35.1353 17.1394L34.6261 17.6919L34.1494 17.1394C33.4993 16.4027 33.196 16.4027 32.5243 17.1394L32.0259 17.6811L31.5492 17.1394L31.0725 16.5977H28.9165C27.7356 16.5977 26.7606 16.5543 26.7606 16.5002C26.7606 16.446 26.5222 16.1751 26.2189 15.8826L25.688 15.3518L25.6772 13.0983V10.8556H32.8818H40.0864V23.4231V35.9906H38.6238H37.1612V34.073V32.1445L38.353 30.0752C39.0139 28.9376 39.5447 27.9084 39.5447 27.7892C39.5447 27.67 39.4581 27.4967 39.3497 27.3992C39.1655 27.2367 38.1905 27.215 27.9957 27.1934L16.8474 27.1609L16.8149 22.8706C16.7933 18.9487 16.7716 18.5695 16.5983 18.4178C16.5008 18.3311 15.7315 18.0278 14.8973 17.7352C14.0631 17.4536 10.5854 16.251 7.17266 15.0701C3.74911 13.8783 0.813087 12.9141 0.650577 12.9141C-0.0428011 12.9141 0.000535014 11.419 0.000535014 32.8812C0.000535014 52.5775 0.000534998 52.675 0.368892 52.9133C0.433896 52.9567 11.9288 53 25.9047 53C50.3896 53 51.3321 52.9892 51.4947 52.805C51.668 52.6208 51.6788 51.8841 51.6788 44.4736C51.6788 36.7381 51.668 36.3373 51.4838 36.1748C51.3105 36.0122 50.9746 35.9906 48.992 35.9906H46.6952V23.4231V10.8556H49.1112C51.0288 10.8556 51.5705 10.8231 51.7438 10.704C51.9389 10.5523 51.9497 10.4006 51.9497 8.06046C51.9497 6.12117 51.9172 5.53614 51.798 5.40613C51.668 5.24362 51.343 5.22195 49.1762 5.22195H46.6952V4.3769C46.6952 3.38017 46.7169 3.4235 45.3084 1.88507L44.29 0.779999H43.38H42.4699L41.7874 1.50588ZM44.5609 3.00097L45.4059 3.92187L45.3734 4.53941L45.3409 5.16778L43.3691 5.20028L41.3865 5.22195V4.55024V3.86769L42.2099 2.96847C43.3258 1.75506 43.4341 1.75506 44.5609 3.00097ZM29.4691 8.0388V9.55556H26.6306C24.1821 9.55556 23.8137 9.53389 23.9437 9.40388C24.0304 9.31721 24.8538 8.63467 25.7747 7.88712L27.4323 6.52203H28.4507H29.4691V8.0388ZM34.7778 7.67044C34.7778 8.75384 34.7669 8.79718 34.5827 8.66717C34.2469 8.42882 32.0692 6.59787 32.0692 6.56537C32.0692 6.5437 32.676 6.52203 33.4235 6.52203H34.7778V7.67044ZM38.7863 6.56537C38.7863 6.58704 38.2663 7.03123 37.6271 7.55127C36.9771 8.08213 36.3704 8.5805 36.2729 8.66717C36.0887 8.81884 36.0778 8.76468 36.0778 7.68127V6.52203H37.4321C38.1796 6.52203 38.7863 6.5437 38.7863 6.56537ZM45.3951 7.67044C45.3951 8.54799 45.3626 8.78634 45.2651 8.73217C45.0484 8.60217 42.6866 6.61954 42.6866 6.56537C42.6866 6.5437 43.2933 6.52203 44.0408 6.52203H45.3951V7.67044ZM49.1762 6.77121C49.0137 6.90122 48.3961 7.41042 47.7894 7.90879L46.6952 8.80801V7.67044V6.52203H48.0819L49.4579 6.53287L49.1762 6.77121ZM32.2643 8.45049C32.9251 9.01386 33.4777 9.49055 33.4777 9.51222C33.4777 9.53389 32.871 9.55556 32.1234 9.55556H30.7692V8.40715C30.7692 7.52959 30.8017 7.29125 30.91 7.34542C30.975 7.39959 31.5926 7.88712 32.2643 8.45049ZM40.0864 8.41799V9.55556H38.6672H37.2479L38.6238 8.41799C39.3822 7.78961 40.0214 7.28041 40.0431 7.28041C40.0648 7.28041 40.0864 7.78961 40.0864 8.41799ZM42.9358 8.51549C43.575 9.04636 44.095 9.49055 44.095 9.51222C44.095 9.53389 43.4883 9.55556 42.7408 9.55556H41.3865V8.40715C41.3865 7.07457 41.2023 7.06373 42.9358 8.51549ZM50.7038 8.41799V9.55556H49.2737H47.8328L48.1578 9.29554C48.342 9.1547 48.9487 8.6455 49.512 8.1688C50.0754 7.69211 50.5738 7.29125 50.6279 7.29125C50.6713 7.28041 50.7038 7.78961 50.7038 8.41799ZM44.1492 10.9423C43.5967 11.4407 41.5057 13.1308 41.4515 13.1308C41.419 13.1308 41.3865 12.6216 41.3865 11.9932V10.8556H42.8166C43.6075 10.8556 44.2034 10.899 44.1492 10.9423ZM45.3951 12.8599V13.9975H43.965C43.0766 13.9975 42.5783 13.9542 42.6324 13.9C42.9574 13.5858 45.2434 11.7224 45.3193 11.7224C45.3626 11.7224 45.3951 12.2316 45.3951 12.8599ZM8.38607 16.8685C12.2538 18.2119 15.4282 19.3062 15.4499 19.3062C15.4715 19.3062 15.4932 24.9399 15.4932 31.8195V44.3328H8.3969H1.30062V29.3818C1.30062 21.1588 1.31145 14.4309 1.33312 14.4309C1.34395 14.4309 4.51832 15.5251 8.38607 16.8685ZM45.3951 16.4352C45.3951 17.0635 45.3626 17.5727 45.3301 17.5727C45.2759 17.5727 43.185 15.8826 42.6433 15.3843C42.5783 15.3409 43.1741 15.2976 43.965 15.2976H45.3951V16.4352ZM43.8675 18.0819L44.1492 18.3203L42.7733 18.3311H41.3865V17.1827V16.0451L42.4807 16.9444C43.0875 17.4427 43.705 17.9519 43.8675 18.0819ZM44.0733 19.7287C44.0625 19.772 43.705 20.1079 43.2825 20.4546C42.8708 20.8013 42.2641 21.2996 41.9607 21.5597L41.3865 22.0364V20.8338V19.6312H42.7516C43.4991 19.6312 44.095 19.6745 44.0733 19.7287ZM45.3951 21.6355V22.7731H43.965H42.5241L42.9466 22.4264C43.1741 22.2422 43.7917 21.7222 44.3009 21.2996C44.8101 20.8663 45.2651 20.5088 45.3193 20.4979C45.3626 20.4979 45.3951 21.0071 45.3951 21.6355ZM45.3951 25.2107C45.3951 25.8391 45.3626 26.3483 45.3193 26.3483C45.2434 26.3483 43.0008 24.5173 42.6433 24.1707C42.5783 24.1165 43.1091 24.0732 43.965 24.0732H45.3951V25.2107ZM44.0842 27.1283C44.095 27.1825 43.4883 27.215 42.7408 27.215H41.3865V26.0233V24.8207L42.7299 25.9366C43.4775 26.5541 44.0842 27.085 44.0842 27.1283ZM37.7029 28.5693C37.7029 28.5909 37.3671 29.1868 36.9554 29.891L36.2187 31.1694L26.5006 31.2019L16.7933 31.2236V29.8694V28.5151H27.2481C33.001 28.5151 37.7029 28.5368 37.7029 28.5693ZM44.095 28.5584C44.095 28.5801 43.575 29.0243 42.9358 29.5443C42.2857 30.0752 41.679 30.5736 41.5815 30.6602C41.3973 30.8119 41.3865 30.7577 41.3865 29.6743V28.5151H42.7408C43.4883 28.5151 44.095 28.5368 44.095 28.5584ZM45.3951 30.4111V31.5486H43.9758H42.5457L43.9325 30.4111C44.6909 29.7827 45.3301 29.2735 45.3518 29.2735C45.3734 29.2735 45.3951 29.7827 45.3951 30.4111ZM35.8612 38.4282V44.3328H32.0151C27.4323 44.3328 27.7356 44.2461 27.7356 45.6329V46.4996H25.9047H24.0737L24.0412 45.5679C24.0087 44.7986 23.9654 44.6145 23.7921 44.4845C23.6187 44.3653 22.947 44.3328 20.1843 44.3328H16.7933V38.5041C16.7933 35.2972 16.8258 32.632 16.8691 32.5995C16.9016 32.5562 21.1919 32.5237 26.4031 32.5237H35.8612V38.4282ZM45.3734 34.4413L45.4059 35.9906H43.3908H41.3865V34.4196V32.8487L43.3691 32.8704L45.3409 32.9029L45.3734 34.4413ZM38.8947 40.8117V44.3328H38.028H37.1612V40.8117V37.2907H38.028H38.8947V40.8117ZM42.6866 38.049V38.8074H41.4407H40.1948V38.049V37.2907H41.4407H42.6866V38.049ZM50.3787 40.8117V44.3328H47.1827H43.9867V40.8117V37.2907H47.1827H50.3787V40.8117ZM42.6866 40.8117V41.5159H41.4407H40.1948V40.8117V40.1075H41.4407H42.6866V40.8117ZM42.6866 43.5744V44.3328H41.4407H40.1948V43.5744V42.816H41.4407H42.6866V43.5744ZM22.752 48.6664V51.6999H12.0263H1.30062V48.6664V45.6329H12.0263H22.752V48.6664ZM50.3787 48.6664V51.6999H39.7072H29.0357V48.6664V45.6329H39.7072H50.3787V48.6664ZM27.7356 49.7498V51.6999H25.8939H24.0521V49.7498V47.7997H25.8939H27.7356V49.7498Z"/>
</mask>
<path d="M41.7874 1.50588C40.0214 3.391 40.1514 3.18515 40.0864 4.23605L40.0323 5.16778L33.4993 5.20028L26.9664 5.22195L24.1821 7.50793C22.6545 8.76468 21.3544 9.90225 21.3002 10.0431C21.2244 10.2273 21.2461 10.3681 21.3761 10.574C21.5602 10.8448 21.5927 10.8448 22.947 10.8773L24.3229 10.9098L24.3554 12.8599L24.3771 14.8101H23.3804C22.167 14.8209 21.4086 15.0809 20.6502 15.7418C20.1193 16.2185 20.0543 16.4135 20.3252 16.7927C20.5527 17.1177 20.9644 17.096 21.4302 16.7494C21.9178 16.3702 22.7628 16.056 23.272 16.056C24.3771 16.0668 25.168 16.4568 25.688 17.2586C25.8614 17.5402 26.1214 17.8003 26.2514 17.8328C26.3814 17.8653 27.3781 17.8978 28.4724 17.8978H30.455L31.1267 18.602C31.495 18.992 31.8851 19.3062 31.9934 19.3062C32.1017 19.3062 32.4484 19.057 32.7626 18.7645L33.3368 18.2228L33.8785 18.7645C34.1819 19.057 34.5069 19.3062 34.6044 19.3062C34.7127 19.3062 35.0703 19.0462 35.4061 18.7211L36.0237 18.1361L36.5437 18.5911L37.0637 19.0353L36.3812 19.6095L35.6986 20.1729H30.9533H26.208L25.9697 20.4438C25.8397 20.5846 25.5905 20.888 25.4063 21.1046C24.7129 21.9714 23.142 22.2314 22.0478 21.668C21.4844 21.3755 20.4443 20.4004 20.856 20.5413C20.9752 20.5846 21.2352 20.6496 21.4302 20.6821C22.0369 20.7904 22.4378 20.1837 22.0803 19.707C22.0044 19.6095 21.4194 19.3279 20.7802 19.0895C19.3718 18.5695 19.1876 18.602 18.8626 19.4579C18.0934 21.5488 18.0934 21.538 18.5484 21.8413C18.8842 22.058 19.2526 21.9497 19.4476 21.5813L19.5993 21.2888L20.2818 21.9497C20.661 22.318 21.1919 22.7297 21.4627 22.8597C23.0878 23.6506 25.1896 23.2931 26.3164 22.058L26.8581 21.473H31.5059H36.1645L36.5329 21.1805C36.7279 21.018 37.2912 20.5304 37.7896 20.0862C38.8513 19.1328 38.8947 18.9487 38.223 18.342C35.9478 16.2943 35.9262 16.2835 35.1353 17.1394L34.6261 17.6919L34.1494 17.1394C33.4993 16.4027 33.196 16.4027 32.5243 17.1394L32.0259 17.6811L31.5492 17.1394L31.0725 16.5977H28.9165C27.7356 16.5977 26.7606 16.5543 26.7606 16.5002C26.7606 16.446 26.5222 16.1751 26.2189 15.8826L25.688 15.3518L25.6772 13.0983V10.8556H32.8818H40.0864V23.4231V35.9906H38.6238H37.1612V34.073V32.1445L38.353 30.0752C39.0139 28.9376 39.5447 27.9084 39.5447 27.7892C39.5447 27.67 39.4581 27.4967 39.3497 27.3992C39.1655 27.2367 38.1905 27.215 27.9957 27.1934L16.8474 27.1609L16.8149 22.8706C16.7933 18.9487 16.7716 18.5695 16.5983 18.4178C16.5008 18.3311 15.7315 18.0278 14.8973 17.7352C14.0631 17.4536 10.5854 16.251 7.17266 15.0701C3.74911 13.8783 0.813087 12.9141 0.650577 12.9141C-0.0428011 12.9141 0.000535014 11.419 0.000535014 32.8812C0.000535014 52.5775 0.000534998 52.675 0.368892 52.9133C0.433896 52.9567 11.9288 53 25.9047 53C50.3896 53 51.3321 52.9892 51.4947 52.805C51.668 52.6208 51.6788 51.8841 51.6788 44.4736C51.6788 36.7381 51.668 36.3373 51.4838 36.1748C51.3105 36.0122 50.9746 35.9906 48.992 35.9906H46.6952V23.4231V10.8556H49.1112C51.0288 10.8556 51.5705 10.8231 51.7438 10.704C51.9389 10.5523 51.9497 10.4006 51.9497 8.06046C51.9497 6.12117 51.9172 5.53614 51.798 5.40613C51.668 5.24362 51.343 5.22195 49.1762 5.22195H46.6952V4.3769C46.6952 3.38017 46.7169 3.4235 45.3084 1.88507L44.29 0.779999H43.38H42.4699L41.7874 1.50588ZM44.5609 3.00097L45.4059 3.92187L45.3734 4.53941L45.3409 5.16778L43.3691 5.20028L41.3865 5.22195V4.55024V3.86769L42.2099 2.96847C43.3258 1.75506 43.4341 1.75506 44.5609 3.00097ZM29.4691 8.0388V9.55556H26.6306C24.1821 9.55556 23.8137 9.53389 23.9437 9.40388C24.0304 9.31721 24.8538 8.63467 25.7747 7.88712L27.4323 6.52203H28.4507H29.4691V8.0388ZM34.7778 7.67044C34.7778 8.75384 34.7669 8.79718 34.5827 8.66717C34.2469 8.42882 32.0692 6.59787 32.0692 6.56537C32.0692 6.5437 32.676 6.52203 33.4235 6.52203H34.7778V7.67044ZM38.7863 6.56537C38.7863 6.58704 38.2663 7.03123 37.6271 7.55127C36.9771 8.08213 36.3704 8.5805 36.2729 8.66717C36.0887 8.81884 36.0778 8.76468 36.0778 7.68127V6.52203H37.4321C38.1796 6.52203 38.7863 6.5437 38.7863 6.56537ZM45.3951 7.67044C45.3951 8.54799 45.3626 8.78634 45.2651 8.73217C45.0484 8.60217 42.6866 6.61954 42.6866 6.56537C42.6866 6.5437 43.2933 6.52203 44.0408 6.52203H45.3951V7.67044ZM49.1762 6.77121C49.0137 6.90122 48.3961 7.41042 47.7894 7.90879L46.6952 8.80801V7.67044V6.52203H48.0819L49.4579 6.53287L49.1762 6.77121ZM32.2643 8.45049C32.9251 9.01386 33.4777 9.49055 33.4777 9.51222C33.4777 9.53389 32.871 9.55556 32.1234 9.55556H30.7692V8.40715C30.7692 7.52959 30.8017 7.29125 30.91 7.34542C30.975 7.39959 31.5926 7.88712 32.2643 8.45049ZM40.0864 8.41799V9.55556H38.6672H37.2479L38.6238 8.41799C39.3822 7.78961 40.0214 7.28041 40.0431 7.28041C40.0648 7.28041 40.0864 7.78961 40.0864 8.41799ZM42.9358 8.51549C43.575 9.04636 44.095 9.49055 44.095 9.51222C44.095 9.53389 43.4883 9.55556 42.7408 9.55556H41.3865V8.40715C41.3865 7.07457 41.2023 7.06373 42.9358 8.51549ZM50.7038 8.41799V9.55556H49.2737H47.8328L48.1578 9.29554C48.342 9.1547 48.9487 8.6455 49.512 8.1688C50.0754 7.69211 50.5738 7.29125 50.6279 7.29125C50.6713 7.28041 50.7038 7.78961 50.7038 8.41799ZM44.1492 10.9423C43.5967 11.4407 41.5057 13.1308 41.4515 13.1308C41.419 13.1308 41.3865 12.6216 41.3865 11.9932V10.8556H42.8166C43.6075 10.8556 44.2034 10.899 44.1492 10.9423ZM45.3951 12.8599V13.9975H43.965C43.0766 13.9975 42.5783 13.9542 42.6324 13.9C42.9574 13.5858 45.2434 11.7224 45.3193 11.7224C45.3626 11.7224 45.3951 12.2316 45.3951 12.8599ZM8.38607 16.8685C12.2538 18.2119 15.4282 19.3062 15.4499 19.3062C15.4715 19.3062 15.4932 24.9399 15.4932 31.8195V44.3328H8.3969H1.30062V29.3818C1.30062 21.1588 1.31145 14.4309 1.33312 14.4309C1.34395 14.4309 4.51832 15.5251 8.38607 16.8685ZM45.3951 16.4352C45.3951 17.0635 45.3626 17.5727 45.3301 17.5727C45.2759 17.5727 43.185 15.8826 42.6433 15.3843C42.5783 15.3409 43.1741 15.2976 43.965 15.2976H45.3951V16.4352ZM43.8675 18.0819L44.1492 18.3203L42.7733 18.3311H41.3865V17.1827V16.0451L42.4807 16.9444C43.0875 17.4427 43.705 17.9519 43.8675 18.0819ZM44.0733 19.7287C44.0625 19.772 43.705 20.1079 43.2825 20.4546C42.8708 20.8013 42.2641 21.2996 41.9607 21.5597L41.3865 22.0364V20.8338V19.6312H42.7516C43.4991 19.6312 44.095 19.6745 44.0733 19.7287ZM45.3951 21.6355V22.7731H43.965H42.5241L42.9466 22.4264C43.1741 22.2422 43.7917 21.7222 44.3009 21.2996C44.8101 20.8663 45.2651 20.5088 45.3193 20.4979C45.3626 20.4979 45.3951 21.0071 45.3951 21.6355ZM45.3951 25.2107C45.3951 25.8391 45.3626 26.3483 45.3193 26.3483C45.2434 26.3483 43.0008 24.5173 42.6433 24.1707C42.5783 24.1165 43.1091 24.0732 43.965 24.0732H45.3951V25.2107ZM44.0842 27.1283C44.095 27.1825 43.4883 27.215 42.7408 27.215H41.3865V26.0233V24.8207L42.7299 25.9366C43.4775 26.5541 44.0842 27.085 44.0842 27.1283ZM37.7029 28.5693C37.7029 28.5909 37.3671 29.1868 36.9554 29.891L36.2187 31.1694L26.5006 31.2019L16.7933 31.2236V29.8694V28.5151H27.2481C33.001 28.5151 37.7029 28.5368 37.7029 28.5693ZM44.095 28.5584C44.095 28.5801 43.575 29.0243 42.9358 29.5443C42.2857 30.0752 41.679 30.5736 41.5815 30.6602C41.3973 30.8119 41.3865 30.7577 41.3865 29.6743V28.5151H42.7408C43.4883 28.5151 44.095 28.5368 44.095 28.5584ZM45.3951 30.4111V31.5486H43.9758H42.5457L43.9325 30.4111C44.6909 29.7827 45.3301 29.2735 45.3518 29.2735C45.3734 29.2735 45.3951 29.7827 45.3951 30.4111ZM35.8612 38.4282V44.3328H32.0151C27.4323 44.3328 27.7356 44.2461 27.7356 45.6329V46.4996H25.9047H24.0737L24.0412 45.5679C24.0087 44.7986 23.9654 44.6145 23.7921 44.4845C23.6187 44.3653 22.947 44.3328 20.1843 44.3328H16.7933V38.5041C16.7933 35.2972 16.8258 32.632 16.8691 32.5995C16.9016 32.5562 21.1919 32.5237 26.4031 32.5237H35.8612V38.4282ZM45.3734 34.4413L45.4059 35.9906H43.3908H41.3865V34.4196V32.8487L43.3691 32.8704L45.3409 32.9029L45.3734 34.4413ZM38.8947 40.8117V44.3328H38.028H37.1612V40.8117V37.2907H38.028H38.8947V40.8117ZM42.6866 38.049V38.8074H41.4407H40.1948V38.049V37.2907H41.4407H42.6866V38.049ZM50.3787 40.8117V44.3328H47.1827H43.9867V40.8117V37.2907H47.1827H50.3787V40.8117ZM42.6866 40.8117V41.5159H41.4407H40.1948V40.8117V40.1075H41.4407H42.6866V40.8117ZM42.6866 43.5744V44.3328H41.4407H40.1948V43.5744V42.816H41.4407H42.6866V43.5744ZM22.752 48.6664V51.6999H12.0263H1.30062V48.6664V45.6329H12.0263H22.752V48.6664ZM50.3787 48.6664V51.6999H39.7072H29.0357V48.6664V45.6329H39.7072H50.3787V48.6664ZM27.7356 49.7498V51.6999H25.8939H24.0521V49.7498V47.7997H25.8939H27.7356V49.7498Z" fill="white" stroke="white" stroke-width="6" mask="url(#path-1-inside-1_38_1085)"/>
<path d="M3.8999 22.498C3.89982 22.3976 3.8967 22.306 3.89111 22.2227C3.88965 22.2216 3.8887 22.2198 3.88721 22.2188C3.78195 22.1436 3.61716 22.0612 3.40381 22.0332C3.33928 22.0247 3.27898 22.0237 3.22314 22.0254L3.8999 22.498ZM2.79932 22.1338C2.76629 22.1583 2.68996 22.2181 2.61182 22.3164C2.60969 22.3191 2.60804 22.3225 2.60596 22.3252C2.60074 22.4332 2.60372 22.5436 2.6167 22.6514C2.71798 22.7592 2.84194 22.849 2.97998 22.9072C3.06688 22.9438 3.1393 22.9596 3.18408 22.9668C3.20623 22.9703 3.22312 22.9729 3.23389 22.9736H3.25049L3.3501 22.9678C3.54207 22.9452 3.73985 22.8566 3.896 22.6992C3.89712 22.6442 3.89984 22.5839 3.8999 22.5176L3.21338 22.0264C2.99679 22.0349 2.85045 22.1042 2.79932 22.1338Z" fill="white" stroke="white" stroke-width="3"/>
<path d="M6.16016 22.7637C6.3392 22.9264 6.56198 22.9903 6.76758 22.9775C6.9388 22.9668 7.17538 22.8924 7.37012 22.6895C7.38412 22.5583 7.38552 22.4218 7.37695 22.291C7.36626 22.2794 7.35665 22.2658 7.34473 22.2539C7.27311 22.1823 7.21385 22.147 7.17188 22.126C7.14642 22.1132 7.10427 22.0948 7.04492 22.0771C6.99374 22.0619 6.87807 22.0313 6.71777 22.0312C6.55763 22.0312 6.44193 22.0619 6.39062 22.0771C6.33135 22.0948 6.28915 22.1132 6.26367 22.126C6.22167 22.147 6.16157 22.1822 6.08984 22.2539C6.08422 22.2595 6.07956 22.2659 6.07422 22.2715C6.06171 22.4046 6.06178 22.5435 6.07324 22.6768C6.0984 22.7053 6.12788 22.7339 6.16016 22.7637Z" fill="white" stroke="white" stroke-width="3"/>
<path d="M9.6958 22.3975L10.2729 22.9746M9.6958 22.3975L10.1538 22.0742M9.6958 22.3975L10.2729 22.9746M9.6958 22.3975L9.53564 22.5098M10.2729 22.9746C10.4444 22.9537 10.6477 22.8765 10.8208 22.6895C10.8232 22.6868 10.8253 22.6833 10.8276 22.6807C10.8374 22.5675 10.841 22.4504 10.8335 22.3359C10.8279 22.3286 10.8238 22.3198 10.8179 22.3125C10.7295 22.2027 10.6446 22.1426 10.6235 22.1279C10.6192 22.1253 10.6135 22.1213 10.606 22.1172C10.5877 22.1073 10.5578 22.0919 10.5171 22.0771C10.4325 22.0465 10.3039 22.0167 10.146 22.0244C10.132 22.0251 10.1185 22.0281 10.105 22.0293M10.2729 22.9746C10.2251 22.9804 10.1797 22.9824 10.1382 22.9805C9.97753 22.9731 9.738 22.9076 9.5376 22.7012C9.53672 22.6514 9.53467 22.5971 9.53467 22.5381L9.53564 22.5098M10.105 22.0293L10.1538 22.0742M10.105 22.0293L10.1538 22.0742M10.105 22.0293C9.78075 22.0578 9.59327 22.2217 9.55713 22.2578C9.55218 22.2628 9.54819 22.2685 9.54346 22.2734C9.53905 22.3454 9.53607 22.424 9.53564 22.5098M10.1538 22.0742L9.53564 22.5098" fill="white" stroke="white" stroke-width="3"/>
<path d="M13.1108 22.126L13.4233 22.583M13.1108 22.126C13.1836 22.0879 13.3368 22.0252 13.5532 22.0254L13.6782 22.1309L13.4233 22.583M13.1108 22.126L13.4233 22.583M13.1108 22.126C13.1013 22.131 13.0922 22.1338 13.0854 22.1377C13.0805 22.1415 13.0751 22.1463 13.0688 22.1514M13.4233 22.583L13.4067 22.6123M13.0688 22.1514L13.4067 22.6123M13.0688 22.1514L13.4067 22.6123M13.0688 22.1514C13.0394 22.175 12.9965 22.212 12.9497 22.2637C12.9444 22.39 12.9478 22.522 12.9595 22.6494C13.0726 22.7762 13.1857 22.8516 13.2515 22.8887L13.4067 22.6123M13.4497 22.6211L13.6958 22.1455L14.0728 22.459L13.6216 22.873M13.4497 22.6211L13.6216 22.873M13.4497 22.6211L13.6216 22.873M13.4497 22.6211L13.2983 22.9141C13.3711 22.9517 13.4413 22.9703 13.5112 22.9756L13.6216 22.873M13.6655 22.9658C13.7144 22.9572 13.7754 22.9431 13.8442 22.9141C13.9334 22.8765 14.0613 22.8035 14.188 22.6738C14.1887 22.6374 14.1896 22.5987 14.1899 22.5576L14.0913 22.4746L13.6147 22.8965M13.6655 22.9658L13.6147 22.8965M13.6655 22.9658C13.6396 22.9704 13.617 22.9742 13.5981 22.9756C13.5733 22.9774 13.5487 22.9779 13.5239 22.9766L13.6147 22.8965M13.6655 22.9658L13.6147 22.8965M13.73 22.04C13.6996 22.0352 13.6686 22.0288 13.6362 22.0264C13.613 22.0247 13.5899 22.0267 13.5679 22.0264L13.6841 22.1201L13.73 22.04ZM14.1899 22.3506C14.1897 22.3084 14.1887 22.2688 14.188 22.2314C14.1649 22.2136 14.1374 22.1908 14.1021 22.1699C14.0135 22.1175 13.8937 22.0687 13.7495 22.043L13.7017 22.1338L14.0874 22.4453L14.1899 22.3506ZM14.1909 22.3867L14.1069 22.4609L14.1909 22.5293C14.191 22.5033 14.1929 22.4762 14.1929 22.4482L14.1909 22.3867Z" fill="white" stroke="white" stroke-width="3"/>
<path d="M3.30469 26.7627C3.31255 26.7627 3.43504 26.7629 3.60156 26.6875C3.71875 26.6344 3.81649 26.5597 3.89648 26.4805C3.89718 26.4356 3.90039 26.3871 3.90039 26.335L3.89844 26.2803C3.89771 26.1661 3.89475 26.064 3.88867 25.9727C3.80519 25.9211 3.65299 25.845 3.44238 25.8184C3.19235 25.7868 2.99285 25.8408 2.88086 25.8857C2.84015 25.9021 2.81024 25.918 2.79297 25.9277C2.75842 25.954 2.68971 26.0093 2.61914 26.0967C2.61577 26.1009 2.61265 26.1052 2.60938 26.1094C2.60498 26.163 2.60059 26.2171 2.60059 26.2705C2.60059 26.3154 2.60404 26.3572 2.60547 26.3965C2.63075 26.4251 2.65877 26.4543 2.68945 26.4824C2.79145 26.5758 2.90172 26.6426 3.00586 26.6875C3.16265 26.755 3.28264 26.7622 3.30469 26.7627Z" fill="white" stroke="white" stroke-width="3"/>
<path d="M7.37158 26.459C7.3835 26.335 7.3855 26.207 7.37744 26.084C7.36663 26.0722 7.35628 26.0589 7.34424 26.0469C7.27261 25.9753 7.21335 25.9399 7.17139 25.9189C7.14592 25.9062 7.10375 25.8878 7.04443 25.8701C6.99316 25.8548 6.8775 25.8242 6.71729 25.8242C6.6977 25.8242 6.67886 25.8263 6.66064 25.8271L7.37061 26.46L7.37158 26.459ZM6.71924 26.7764C6.87149 26.774 7.1354 26.7188 7.36182 26.4697L6.65381 25.8271C6.52642 25.8336 6.43429 25.857 6.39014 25.8701C6.33075 25.8878 6.28865 25.9062 6.26318 25.9189C6.22121 25.9399 6.16197 25.9753 6.09033 26.0469C6.08221 26.055 6.0754 26.0643 6.06787 26.0723C6.05859 26.2024 6.06061 26.3382 6.07275 26.4688C6.1021 26.5021 6.1371 26.5365 6.17627 26.5713C6.36116 26.7323 6.56446 26.7788 6.71924 26.7764Z" fill="white" stroke="white" stroke-width="3"/>
<path d="M10.4741 26.1758L10.7896 26.4785M10.4741 26.1758L10.4614 26.1943M10.4741 26.1758L10.7896 26.4785M10.4741 26.1758L10.4614 26.1943M10.7896 26.4785C10.7996 26.4679 10.8086 26.4568 10.8179 26.4463C10.831 26.3379 10.8339 26.2268 10.8286 26.1182C10.8266 26.1156 10.8257 26.1119 10.8237 26.1094C10.7451 26.0104 10.668 25.9509 10.6353 25.9268C10.5735 25.8911 10.3784 25.8002 10.0903 25.8232M10.7896 26.4785C10.787 26.4812 10.7843 26.4837 10.7817 26.4863C10.777 26.4911 10.7718 26.4953 10.7671 26.5M10.0903 25.8232L10.4614 26.1943M10.0903 25.8232L10.1372 25.8701M10.0903 25.8232C10.0713 25.8248 10.0516 25.8236 10.0317 25.8262C9.81839 25.8542 9.6536 25.9365 9.54834 26.0117C9.54663 26.0129 9.54513 26.0144 9.54346 26.0156C9.53825 26.0994 9.53467 26.1925 9.53467 26.2959C9.53467 26.3679 9.53737 26.4332 9.53857 26.4922C9.74408 26.7047 9.97562 26.7568 10.0942 26.7656C10.1352 26.7687 10.1872 26.7682 10.2466 26.7607M10.4614 26.1943L10.7671 26.5M10.2466 26.7607L9.59619 26.248M10.2466 26.7607L9.59619 26.248M10.2466 26.7607C10.3948 26.7421 10.5874 26.6765 10.7671 26.5M9.59619 26.248L10.1372 25.8701M9.59619 26.248L10.1372 25.8701M10.1372 25.8701L10.7671 26.5" fill="white" stroke="white" stroke-width="3"/>
<path d="M13.5591 26.6016L13.1167 25.9062C13.2241 25.8379 13.3696 25.789 13.5327 25.7803L14.1909 26.3291C14.1909 26.3414 14.191 26.3534 14.1909 26.3652M13.5591 26.6016L14.1909 26.3652M13.5591 26.6016L14.1909 26.3652M13.5591 26.6016L13.6626 26.7656C13.6851 26.7626 13.7177 26.7559 13.7603 26.7422C13.7958 26.7308 13.991 26.6683 14.189 26.4678C14.1894 26.4354 14.1907 26.4013 14.1909 26.3652M13.5435 25.7803L14.1919 26.3047C14.1919 26.2908 14.1929 26.2762 14.1929 26.2617L14.1841 25.998C14.1141 25.9375 14.0255 25.8809 13.9146 25.8389C13.7867 25.7904 13.6607 25.7754 13.5435 25.7803ZM12.9272 26.0859C12.9194 26.1788 12.9173 26.2731 12.9194 26.3643C12.9439 26.3934 12.9711 26.4247 13.0024 26.4561L13.0884 26.5342C13.2874 26.6995 13.4683 26.7444 13.5034 26.7529C13.5739 26.7701 13.6159 26.7691 13.6304 26.7686C13.6355 26.7684 13.6442 26.7671 13.6567 26.7656L13.103 25.916C13.0815 25.9314 13.0202 25.9785 12.9536 26.0527C12.9443 26.0631 12.9364 26.0749 12.9272 26.0859Z" fill="white" stroke="white" stroke-width="3"/>
<path d="M3.89062 29.7695V29.7676C3.80766 29.716 3.65493 29.6382 3.44238 29.6113C3.36673 29.6018 3.29586 29.602 3.23047 29.6055M3.89062 29.7695L3.72656 29.9424M3.89062 29.7695C3.89231 29.7979 3.8924 29.8269 3.89355 29.8564L3.90039 30.041C3.90039 30.0474 3.89942 30.0542 3.89941 30.0605M3.89062 29.7695L3.72656 29.9424M3.23047 29.6055L3.72656 29.9424M3.23047 29.6055L3.72656 29.9424M3.23047 29.6055C3.07974 29.6135 2.95897 29.6473 2.88086 29.6787C2.84015 29.6951 2.81024 29.711 2.79297 29.7207C2.75683 29.7481 2.68386 29.8074 2.60938 29.9014C2.60554 29.9479 2.60212 29.9946 2.60156 30.041M3.85352 30.041L3.89941 30.0742M3.85352 30.041H3.87207M3.85352 30.041L3.89941 30.0742M3.85352 30.041H3.87207M3.89941 30.0742C3.89942 30.0697 3.89941 30.0651 3.89941 30.0605M3.89941 30.0742C3.89927 30.1514 3.897 30.2207 3.89551 30.2832C3.78864 30.3941 3.68558 30.4542 3.62695 30.4824C3.54018 30.5242 3.4695 30.5385 3.41992 30.5439C3.3708 30.5493 3.2937 30.5508 3.19238 30.5264C3.11007 30.5065 2.94935 30.4535 2.78223 30.3125L2.70996 30.2461M3.89941 30.0605L3.87207 30.041M3.89941 30.0605L3.87207 30.041M2.70996 30.2461C2.66839 30.2045 2.63204 30.165 2.60254 30.1279C2.60221 30.1071 2.60059 30.0857 2.60059 30.0635C2.60059 30.0561 2.60147 30.0484 2.60156 30.041M2.70996 30.2461L2.91504 30.041M2.70996 30.2461L2.91504 30.041M2.91504 30.041H2.60156M2.91504 30.041H2.60156" fill="white" stroke="white" stroke-width="3"/>
<path d="M6.59424 29.5615C6.66574 29.5446 6.72101 29.5394 6.74756 29.5391C6.86718 29.5377 7.13921 29.5787 7.35596 29.8535C7.3671 29.9832 7.37068 30.1187 7.36768 30.2471C7.36493 30.2502 7.36268 30.2537 7.35986 30.2568M6.59424 29.5615L7.35986 30.2568M6.59424 29.5615L6.72217 29.6777M6.59424 29.5615C6.59067 29.5624 6.58714 29.5635 6.5835 29.5645M7.35986 30.2568C7.35542 30.2617 7.3518 30.2675 7.34717 30.2725C7.16254 30.4682 6.97042 30.5304 6.84912 30.5498L6.09326 30.2432C6.08197 30.2308 6.07215 30.218 6.06201 30.2061C6.06156 30.102 6.06872 29.993 6.07861 29.8867C6.24188 29.6853 6.4413 29.5999 6.5835 29.5645M7.35986 30.2568L6.72217 29.6777M6.72217 29.6777L6.7124 29.6865M6.72217 29.6777L6.7124 29.6865M6.5835 29.5645L6.7124 29.6865M6.5835 29.5645L6.7124 29.6865M6.80811 30.5547L6.17334 30.3232C6.42283 30.546 6.67455 30.5613 6.76416 30.5586C6.77639 30.5582 6.7911 30.5564 6.80811 30.5547Z" fill="white" stroke="white" stroke-width="3"/>
<path d="M9.55322 29.7607C9.54449 29.8582 9.53841 29.9614 9.53662 30.0635L9.53467 30.1279C9.53467 30.1839 9.53678 30.2356 9.5376 30.2832C9.61604 30.3617 9.71133 30.431 9.81982 30.4805C9.96925 30.5485 10.0874 30.5556 10.1304 30.5557C10.1489 30.5553 10.2564 30.5484 10.4028 30.4863C10.5567 30.4211 10.7073 30.3132 10.8296 30.168C10.8305 30.135 10.8345 30.1003 10.8345 30.0635C10.8345 30.0088 10.8295 29.9563 10.8267 29.9062C10.8242 29.9031 10.8223 29.8996 10.8198 29.8965L10.2954 29.6143C10.2068 29.6025 10.105 29.5971 9.99268 29.6113C9.78778 29.6372 9.63806 29.7094 9.55322 29.7607Z" fill="white" stroke="white" stroke-width="3"/>
<path d="M13.5591 30.3945L13.1167 29.6992C13.2241 29.6309 13.3696 29.582 13.5327 29.5732L14.1909 30.1221C14.1909 30.1343 14.191 30.1464 14.1909 30.1582M13.5591 30.3945L14.1909 30.1582M13.5591 30.3945L14.1909 30.1582M13.5591 30.3945L13.6626 30.5586C13.6851 30.5556 13.7177 30.5488 13.7603 30.5352C13.7958 30.5237 13.991 30.4612 14.189 30.2607C14.1894 30.2284 14.1907 30.1943 14.1909 30.1582M13.5435 29.5732L14.1919 30.0977C14.1919 30.0837 14.1929 30.0692 14.1929 30.0547L14.1841 29.791C14.1141 29.7305 14.0255 29.6739 13.9146 29.6318C13.7867 29.5834 13.6607 29.5683 13.5435 29.5732ZM12.9272 29.8789C12.9194 29.9717 12.9173 30.0661 12.9194 30.1572C12.9439 30.1864 12.9711 30.2176 13.0024 30.249L13.0884 30.3271C13.2874 30.4924 13.4683 30.5373 13.5034 30.5459C13.5739 30.5631 13.6159 30.562 13.6304 30.5615C13.6355 30.5613 13.6442 30.5601 13.6567 30.5586L13.103 29.709C13.0815 29.7244 13.0202 29.7715 12.9536 29.8457C12.9443 29.8561 12.9364 29.8679 12.9272 29.8789Z" fill="white" stroke="white" stroke-width="3"/>
<path d="M3.24121 33.3643L3.89746 34.0088C3.89868 33.9515 3.90039 33.8898 3.90039 33.8232C3.90039 33.7358 3.89967 33.6567 3.89746 33.585C3.81382 33.5181 3.69125 33.443 3.52637 33.3994C3.42978 33.3739 3.33372 33.3633 3.24121 33.3643ZM2.9707 34.2441H2.96875C2.97094 34.2448 2.97322 34.2454 2.97559 34.2461C2.97399 34.2456 2.97245 34.2447 2.9707 34.2441ZM3.23438 33.3643C3.14536 33.3658 3.06047 33.3798 2.98145 33.4014C2.95794 33.4113 2.91791 33.4291 2.87109 33.458C2.80741 33.4973 2.72863 33.556 2.65137 33.6387C2.62973 33.6619 2.61159 33.6871 2.59277 33.7109C2.58849 33.788 2.59065 33.8656 2.59766 33.9424C2.61497 33.964 2.63173 33.9868 2.65137 34.0078C2.72863 34.0905 2.80741 34.1492 2.87109 34.1885C2.97012 34.2495 3.03737 34.2649 2.98633 34.249C3.04033 34.2636 3.13154 34.2822 3.24902 34.2832C3.38863 34.2843 3.52817 34.2599 3.65625 34.2129C3.76786 34.1719 3.84895 34.1212 3.89648 34.0869C3.8972 34.0673 3.89696 34.0471 3.89746 34.0264L3.23438 33.3643Z" fill="white" stroke="white" stroke-width="3"/>
<path d="M7.021 33.8008L7.3667 33.7812C7.36641 33.7042 7.36523 33.6349 7.36279 33.5723C7.34042 33.5489 7.32231 33.5298 7.30811 33.5176C7.30279 33.5144 7.29687 33.5099 7.28955 33.5059C7.24059 33.4787 7.11036 33.4128 6.92041 33.3828C6.84619 33.3711 6.77571 33.3692 6.71045 33.3701L6.6958 33.3984M7.021 33.8008L6.6958 33.3984M7.021 33.8008L6.6958 33.3984M7.021 33.8008L6.98389 33.8037M6.6958 33.3984L6.68799 33.4141M6.67334 33.3711C6.68045 33.3708 6.68758 33.3703 6.69482 33.3701L6.68604 33.3857M6.67334 33.3711L6.68604 33.3857M6.67334 33.3711L6.68604 33.3857M6.67334 33.3711C6.38726 33.3835 6.21202 33.487 6.27393 33.4561L6.45557 33.8203L6.68604 33.3857M6.68799 33.4141L6.98389 33.8037M6.68799 33.4141L6.479 33.833L6.98389 33.8037M6.68799 33.4141L6.98389 33.8037M6.08936 33.8555L6.08838 33.8223C6.08468 33.7509 6.08319 33.6871 6.08154 33.6299C6.1201 33.5844 6.15568 33.5463 6.18799 33.5186C6.2097 33.4999 6.23074 33.4872 6.24561 33.4766L6.43506 33.8359L6.08936 33.8555ZM6.08936 33.8555L6.43604 33.8369L6.44189 33.8477L6.26514 34.1787C6.26136 34.1773 6.25777 34.1761 6.25439 34.1748C6.23628 34.162 6.21133 34.1441 6.18408 34.1201C6.1592 34.0982 6.13264 34.0715 6.10498 34.041C6.1003 33.9849 6.09336 33.9235 6.08936 33.8555ZM6.98682 33.8076L6.47803 33.835L6.47021 33.8496L6.67139 34.252C6.74532 34.2533 6.82642 34.2485 6.9126 34.2344C7.0447 34.2127 7.15396 34.1725 7.23584 34.1357M6.98682 33.8076L7.23584 34.1357M6.98682 33.8076L7.3667 33.7881L7.36768 33.8223C7.36768 33.9011 7.36673 33.9726 7.36475 34.0371C7.34971 34.0569 7.33584 34.0756 7.32178 34.0918C7.30786 34.0995 7.29324 34.1096 7.27588 34.1182M6.98682 33.8076L7.02979 33.8643M7.23584 34.1357C7.24987 34.1294 7.26353 34.1243 7.27588 34.1182M7.23584 34.1357L7.02979 33.8643M7.27588 34.1182L7.04932 33.8369M7.27588 34.1182L7.04932 33.8369M7.04932 33.8369L7.02979 33.8643M7.04932 33.8369L7.02979 33.8643M6.45654 33.877L6.30029 34.1904C6.37648 34.2152 6.49969 34.2461 6.65479 34.251L6.45654 33.877Z" fill="white" stroke="white" stroke-width="3"/>
<path d="M10.1675 33.3936L10.1597 33.3701C10.1406 33.37 10.1206 33.3672 10.1001 33.3682C9.96875 33.3746 9.84584 33.4044 9.73877 33.4473C9.6485 33.4834 9.5831 33.5248 9.54639 33.5508C9.54577 33.5579 9.54499 33.565 9.54443 33.5723L9.75244 33.792M10.1675 33.3936L9.75244 33.792M10.1675 33.3936L10.1743 33.4131M10.1675 33.3936L9.75244 33.792M9.75244 33.792L9.77881 33.8193M10.1743 33.4131L9.77881 33.8193M10.1743 33.4131L10.2974 33.7705L10.1851 34.249L9.77881 33.8193M10.1743 33.4131L9.77881 33.8193M9.53857 33.9971C9.53618 33.9427 9.53467 33.8852 9.53467 33.8242C9.53467 33.7534 9.53594 33.6865 9.53955 33.624L9.729 33.8135M9.53857 33.9971L9.729 33.8135M9.53857 33.9971L9.729 33.8135M9.53857 33.9971C9.53956 34.0194 9.54009 34.0412 9.5415 34.0625M9.729 33.8135L9.75732 33.8418M9.5415 34.0625L9.75732 33.8418M9.5415 34.0625L9.75732 33.8418M9.5415 34.0625C9.54185 34.0678 9.54308 34.0729 9.54346 34.0781C9.60762 34.1177 9.69766 34.163 9.81006 34.1992C9.94441 34.2425 10.0694 34.2578 10.1753 34.2598L9.75732 33.8418M10.3872 33.3926C10.3375 33.3809 10.2611 33.371 10.1655 33.3701L10.3022 33.7529L10.3872 33.3926ZM10.4937 33.4219L10.3481 33.8828L10.4712 34.2275C10.4736 34.2269 10.476 34.2271 10.478 34.2266C10.5762 34.1907 10.6954 34.1268 10.8062 34.0215C10.8213 34.0071 10.8338 33.991 10.8472 33.9766C10.8577 33.8728 10.8575 33.7674 10.8462 33.6641C10.8111 33.6254 10.7729 33.5871 10.729 33.5527C10.6173 33.4653 10.5224 33.4309 10.4937 33.4219ZM10.23 34.2588C10.2959 34.2571 10.3529 34.2519 10.3979 34.2441C10.421 34.2401 10.4414 34.2353 10.4575 34.2314L10.3423 33.9004L10.23 34.2588Z" fill="white" stroke="white" stroke-width="3"/>
<path d="M13.6499 33.5293L14.1138 34.1387M13.6499 33.5293L13.7817 33.3535C13.8196 33.3647 13.8619 33.3792 13.9067 33.3994C14.012 33.447 14.1049 33.5122 14.1851 33.5859C14.1884 33.6567 14.1927 33.7323 14.1929 33.8125V33.8232C14.1929 33.9125 14.1903 33.9945 14.187 34.0693C14.1748 34.0821 14.1654 34.0954 14.1558 34.1045C14.1455 34.1141 14.1368 34.1215 14.1304 34.127C14.1251 34.131 14.1194 34.1346 14.1138 34.1387M13.6499 33.5293L13.1626 34.1787C13.1811 34.1926 13.3197 34.2897 13.562 34.2988C13.8087 34.3081 14.0017 34.2193 14.1138 34.1387M13.6499 33.5293L14.1138 34.1387M12.9468 33.8125C12.9468 33.8732 12.9502 33.9309 12.9526 33.9854C12.9684 34.0028 12.9846 34.0212 13.0024 34.0391L13.7056 33.3359C13.641 33.323 13.5981 33.3203 13.5864 33.3203C13.6299 33.3203 13.5161 33.3124 13.3462 33.3779C13.2508 33.4148 13.1411 33.4733 13.0347 33.5615C13.0043 33.5867 12.9768 33.6132 12.9507 33.6396L12.9468 33.8125Z" fill="white" stroke="white" stroke-width="3"/>
<path d="M3.19141 37.1162L3.89648 37.7969M3.19141 37.1162C3.24172 37.1034 3.28033 37.0969 3.30176 37.0947C3.3618 37.0957 3.48392 37.1072 3.63086 37.1768C3.73396 37.2256 3.82153 37.2922 3.89453 37.3643C3.89613 37.4301 3.90029 37.5036 3.90039 37.5859V37.6074C3.90039 37.6748 3.89796 37.7381 3.89648 37.7969M3.19141 37.1162L3.89648 37.7969M3.19141 37.1162C3.16703 37.1224 3.13936 37.1286 3.11035 37.1387C3.01707 37.1712 2.90053 37.2273 2.7832 37.3193C2.71398 37.3737 2.65491 37.4333 2.60449 37.4941L2.60059 37.5859C2.60059 37.6417 2.60438 37.6951 2.60742 37.7461C2.68284 37.8417 2.75673 37.9023 2.79297 37.9297C2.81032 37.9394 2.84049 37.9545 2.88086 37.9707C2.99285 38.0157 3.19235 38.0696 3.44238 38.0381C3.65832 38.0108 3.81349 37.9325 3.89551 37.8809C3.89666 37.8539 3.89576 37.8259 3.89648 37.7969" fill="white" stroke="white" stroke-width="3"/>
<path d="M6.69043 37.0967L7.18457 37.9697C7.20355 37.9565 7.23619 37.9322 7.27344 37.8975C7.30085 37.8719 7.32889 37.8401 7.3584 37.8047C7.36334 37.7365 7.36719 37.6635 7.36719 37.5859L7.36035 37.3955C7.26829 37.2987 7.15616 37.2174 7.03125 37.1631C6.87705 37.0961 6.76174 37.0938 6.73926 37.0938C6.7257 37.0938 6.70924 37.0953 6.69043 37.0967ZM6.07031 37.3975C6.06799 37.4665 6.06738 37.5438 6.06738 37.6299C6.06739 37.6878 6.07038 37.7427 6.07324 37.7949C6.07905 37.8011 6.08447 37.8071 6.08984 37.8125C6.01442 37.7371 6.22645 37.991 6.65137 38.04C6.85927 38.064 7.02208 38.0274 7.1084 38C7.1822 37.9765 7.21234 37.9557 7.1709 37.9785L6.68359 37.0977C6.60248 37.1043 6.47889 37.1266 6.33984 37.1973C6.23135 37.2525 6.14237 37.3234 6.07031 37.3975Z" fill="white" stroke="white" stroke-width="3"/>
<path d="M10.6157 37.9414C10.5993 37.9496 10.579 37.9608 10.5542 37.9707C10.4421 38.0157 10.2427 38.0697 9.99268 38.0381C9.7823 38.0115 9.62993 37.9363 9.54639 37.8848C9.5393 37.7788 9.53467 37.6584 9.53467 37.5215C9.53467 37.4659 9.5368 37.4145 9.5376 37.3672C9.61614 37.2884 9.71108 37.2185 9.81982 37.1689C9.96926 37.1009 10.0874 37.0938 10.1304 37.0938C10.1036 37.0937 10.2402 37.0871 10.4302 37.1689C10.5343 37.2139 10.6446 37.2805 10.7466 37.374C10.7768 37.4018 10.8036 37.4308 10.8286 37.459C10.8294 37.4792 10.8312 37.4999 10.8315 37.5215L10.8345 37.5859C10.8345 37.641 10.8295 37.6938 10.8267 37.7441C10.8228 37.7491 10.8199 37.7548 10.8159 37.7598C10.7444 37.8483 10.6752 37.9039 10.6411 37.9297L10.6392 37.9307M10.6157 37.9414L10.3286 37.5215M10.6157 37.9414L10.3286 37.5215M10.6157 37.9414C10.6247 37.9369 10.6329 37.9341 10.6392 37.9307M10.3286 37.5215H10.3501M10.3286 37.5215H10.3501M10.3501 37.5215L10.6392 37.9307M10.3501 37.5215L10.6392 37.9307" fill="white" stroke="white" stroke-width="3"/>
<path d="M13.5205 37.1006C13.5903 37.0849 13.6448 37.08 13.6748 37.0791C13.7431 37.0874 13.8693 37.1133 14.0117 37.2012C14.0789 37.2427 14.1362 37.2917 14.1865 37.3418C14.1883 37.407 14.1912 37.4797 14.1914 37.5615L13.877 37.5381M13.5205 37.1006L13.6084 37.208M13.5205 37.1006L13.6084 37.208M13.5205 37.1006H13.5195M13.6084 37.208H13.6074M13.6084 37.208H13.6074M13.6074 37.208L13.5195 37.1006M13.6074 37.208L13.5195 37.1006M13.5195 37.1006C13.5136 37.1019 13.5071 37.102 13.501 37.1035C13.4068 37.1267 13.2821 37.1717 13.1514 37.2578C13.0641 37.3153 12.9896 37.3826 12.9258 37.4531L12.9248 37.4639M12.9248 37.4639L13.623 37.5186M12.9248 37.4639C12.9164 37.5727 12.9158 37.6733 12.9189 37.7656C12.9917 37.853 13.0597 37.9076 13.0908 37.9307C13.1026 37.9371 13.1214 37.9474 13.1455 37.958C13.2277 37.994 13.3938 38.0504 13.6152 38.0449C13.8401 38.0393 14.0098 37.9723 14.1016 37.9248C14.1284 37.9109 14.149 37.8977 14.1631 37.8887M12.9248 37.4639L13.8818 37.5449M13.623 37.5186L13.6484 37.2578M13.623 37.5186L13.6484 37.2588M13.623 37.5186L13.875 37.5381M13.6484 37.2578L13.877 37.5381M13.6484 37.2578V37.2588M13.6484 37.2578L13.877 37.5381M13.877 37.5381H13.875M13.6484 37.2588L13.875 37.5381M13.6484 37.2588L13.875 37.5381M14.1631 37.8887L13.8818 37.5449M14.1631 37.8887L13.8818 37.5449M14.1631 37.8887C14.1672 37.886 14.1709 37.8838 14.1738 37.8818C14.178 37.8783 14.1823 37.8748 14.1865 37.8711C14.1902 37.7908 14.1924 37.702 14.1924 37.6045L14.1914 37.5703L13.8818 37.5449" fill="white" stroke="white" stroke-width="3"/>
<path d="M3.88867 41.6709C3.88847 41.6735 3.88791 41.6761 3.8877 41.6787C3.80387 41.7303 3.65164 41.8046 3.44238 41.8311C3.19235 41.8626 2.99285 41.8086 2.88086 41.7637C2.84049 41.7475 2.81032 41.7324 2.79297 41.7227C2.75737 41.6957 2.68513 41.6369 2.61133 41.5439C2.61019 41.5425 2.60855 41.5415 2.60742 41.54C2.60418 41.4886 2.60059 41.4348 2.60059 41.3789L2.60156 41.3574C2.60181 41.3076 2.60526 41.2617 2.60742 41.2188C2.71024 41.1066 2.83735 41.0131 2.97949 40.9531C3.06647 40.9164 3.13878 40.9008 3.18359 40.8936C3.20617 40.8899 3.22359 40.8885 3.23438 40.8877C3.23951 40.8873 3.24343 40.8868 3.24609 40.8867C3.24878 40.8866 3.25096 40.8867 3.25098 40.8867C3.35423 40.8868 3.50844 40.9093 3.67383 40.9971C3.7625 41.0441 3.83522 41.1018 3.89551 41.1602L3.90039 41.3574C3.90039 41.4397 3.89814 41.5161 3.89453 41.5869M3.88867 41.6709L3.29199 41.043M3.88867 41.6709L3.29199 41.043M3.88867 41.6709C3.8908 41.6438 3.89306 41.6159 3.89453 41.5869M3.29199 41.043L3.30664 41.0205M3.29199 41.043L3.30664 41.0205M3.30664 41.0205L3.89453 41.5869M3.30664 41.0205L3.89453 41.5869" fill="white" stroke="white" stroke-width="3"/>
<path d="M6.07422 41.1875C6.07154 41.2488 6.06739 41.3158 6.06738 41.3896C6.06738 41.4539 6.07101 41.5149 6.07422 41.5723C6.12206 41.6161 6.17846 41.6604 6.24609 41.6992C6.41304 41.795 6.58283 41.8281 6.71777 41.8281H6.73926C6.88831 41.8256 6.99608 41.7978 7.04492 41.7832C7.1043 41.7655 7.14641 41.7461 7.17188 41.7334C7.19284 41.7229 7.21809 41.7088 7.24707 41.6885L7.34473 41.6055L7.35938 41.5889C7.3639 41.5232 7.36719 41.4532 7.36719 41.3789L7.3584 41.1855C7.26901 41.0929 7.16082 41.0131 7.03809 40.959C6.87997 40.8893 6.7613 40.8867 6.73926 40.8867C6.66734 40.8867 6.51612 40.9006 6.33984 40.9902C6.23304 41.0446 6.14571 41.1147 6.07422 41.1875Z" fill="white" stroke="white" stroke-width="3"/>
<path d="M10.1108 40.9971L9.53662 41.4434M10.1108 40.9971L10.0454 40.9014M10.1108 40.9971L9.53662 41.4434M10.1108 40.9971L10.0454 40.9014M9.53662 41.4434C9.53772 41.5126 9.53942 41.5773 9.54346 41.6377C9.54513 41.6389 9.54663 41.6404 9.54834 41.6416C9.6536 41.7168 9.81839 41.8001 10.0317 41.8281C10.3463 41.8693 10.5627 41.7689 10.6323 41.7295C10.6631 41.7071 10.7424 41.6464 10.8237 41.5439C10.8252 41.5421 10.8262 41.5399 10.8276 41.5381C10.8301 41.4939 10.8345 41.4478 10.8345 41.4004L10.8335 41.3574C10.8326 41.3089 10.8297 41.2625 10.8257 41.2178C10.7231 41.1064 10.597 41.0128 10.4556 40.9531C10.3687 40.9165 10.2962 40.9008 10.2515 40.8936C10.229 40.89 10.2114 40.8885 10.2007 40.8877C10.1955 40.8873 10.1916 40.8868 10.189 40.8867C10.187 40.8867 10.1856 40.8867 10.1851 40.8867C10.1451 40.8867 10.0978 40.8923 10.0454 40.9014M9.53662 41.4434C9.53618 41.4155 9.53467 41.3868 9.53467 41.3574L9.53857 41.1621C9.60008 41.1019 9.67503 41.043 9.76611 40.9951C9.86614 40.9425 9.96238 40.9158 10.0454 40.9014" fill="white" stroke="white" stroke-width="3"/>
<path d="M13.5205 40.8936C13.5903 40.8779 13.6448 40.8729 13.6748 40.8721C13.7431 40.8803 13.8693 40.9062 14.0117 40.9941C14.0789 41.0356 14.1362 41.0846 14.1865 41.1348C14.1883 41.1999 14.1912 41.2727 14.1914 41.3545L13.877 41.3311M13.5205 40.8936L13.6084 41.001M13.5205 40.8936L13.6084 41.001M13.5205 40.8936H13.5195M13.6084 41.001H13.6074M13.6084 41.001H13.6074M13.6074 41.001L13.5195 40.8936M13.6074 41.001L13.5195 40.8936M13.5195 40.8936C13.5136 40.8949 13.5071 40.895 13.501 40.8965C13.4068 40.9196 13.2821 40.9647 13.1514 41.0508C13.0641 41.1082 12.9896 41.1756 12.9258 41.2461L12.9248 41.2568M12.9248 41.2568L13.623 41.3115M12.9248 41.2568C12.9164 41.3656 12.9158 41.4662 12.9189 41.5586C12.9917 41.6459 13.0597 41.7005 13.0908 41.7236C13.1026 41.73 13.1214 41.7404 13.1455 41.751C13.2277 41.787 13.3938 41.8434 13.6152 41.8379C13.8401 41.8323 14.0098 41.7653 14.1016 41.7178C14.1284 41.7039 14.149 41.6907 14.1631 41.6816M12.9248 41.2568L13.8818 41.3379M13.623 41.3115L13.6484 41.0508M13.623 41.3115L13.6484 41.0518M13.623 41.3115L13.875 41.3311M13.6484 41.0508L13.877 41.3311M13.6484 41.0508V41.0518M13.6484 41.0508L13.877 41.3311M13.877 41.3311H13.875M13.6484 41.0518L13.875 41.3311M13.6484 41.0518L13.875 41.3311M14.1631 41.6816L13.8818 41.3379M14.1631 41.6816L13.8818 41.3379M14.1631 41.6816C14.1672 41.679 14.1709 41.6768 14.1738 41.6748C14.178 41.6713 14.1823 41.6678 14.1865 41.6641C14.1902 41.5838 14.1924 41.4949 14.1924 41.3975L14.1914 41.3633L13.8818 41.3379" fill="white" stroke="white" stroke-width="3"/>
<path d="M19.5503 34.5801L19.1626 35.002M19.5503 34.5801L19.8091 34.8193M19.5503 34.5801L19.1626 35.002M19.5503 34.5801L19.8091 34.8193M19.1626 35.002L19.2632 35.1025M19.1626 35.002L19.1616 35.001M19.2632 35.1025C19.4593 35.0735 19.6552 34.9799 19.8091 34.8193M19.2632 35.1025C19.2107 35.1103 19.1584 35.1146 19.1069 35.1133C19.0918 35.1129 19.0767 35.1114 19.062 35.1104M19.2632 35.1025L19.1616 35.001M19.8091 34.8193C19.8126 34.8157 19.8164 34.8123 19.8198 34.8086C19.822 34.7555 19.8267 34.698 19.8267 34.6357L19.8198 34.4648C19.7952 34.4373 19.7686 34.4072 19.7368 34.3779L19.7349 34.376C19.6013 34.254 19.3786 34.1454 19.105 34.1572C18.839 34.1688 18.6496 34.2874 18.5493 34.3877C18.5416 34.3954 18.5344 34.4047 18.5259 34.4141C18.5142 34.5607 18.5164 34.7153 18.5288 34.8613C18.5361 34.8693 18.5426 34.8771 18.5493 34.8838L18.6519 34.9697C18.7582 35.043 18.8972 35.0981 19.062 35.1104M19.1616 35.001L19.062 35.1104M19.1616 35.001L19.062 35.1104" fill="white" stroke="white" stroke-width="3"/>
<path d="M23.4102 34.6328C23.4099 34.5584 23.4046 34.4843 23.3984 34.4121C23.3917 34.4051 23.386 34.3968 23.3789 34.3896C23.2596 34.2704 23.0681 34.1664 22.8223 34.1602C22.7924 34.1594 22.7618 34.1608 22.7314 34.1631M23.4102 34.6328L22.7314 34.1631M23.4102 34.6328C23.4104 34.698 23.4066 34.7631 23.4023 34.8271C23.208 35.0285 22.9724 35.1026 22.8018 35.1133C22.5958 35.1261 22.3725 35.0617 22.1934 34.8984L22.1895 34.8945L22.1074 34.8096C22.098 34.6983 22.0953 34.5832 22.1025 34.4707C22.2755 34.2808 22.5074 34.18 22.7314 34.1631M23.4102 34.6328L22.7314 34.1631" fill="white" stroke="white" stroke-width="3"/>
<path d="M25.939 34.7109L26.437 34.167C26.3494 34.1619 26.2557 34.1672 26.1597 34.1895C25.9625 34.2353 25.8076 34.3363 25.7007 34.4453C25.6987 34.4616 25.6955 34.4778 25.6938 34.4941M25.939 34.7109L25.6938 34.4941M25.939 34.7109L25.6938 34.4941M25.939 34.7109L25.769 34.8965C25.7379 34.868 25.7113 34.8384 25.687 34.8115C25.6816 34.7096 25.6831 34.6014 25.6938 34.4941M26.9819 34.7354C26.9859 34.6161 26.9833 34.495 26.9722 34.3799C26.9068 34.3216 26.8245 34.2662 26.7192 34.2256C26.6368 34.1938 26.5421 34.1732 26.4399 34.167L26.3481 34.2676M26.9819 34.7354L26.7446 34.7959M26.9819 34.7354C26.9818 34.7403 26.9811 34.7451 26.981 34.75M26.9819 34.7354L26.7329 34.7988M26.3481 34.2676L26.7446 34.7959M26.3481 34.2676L26.7446 34.7959M26.3481 34.2676L26.3442 34.2715M26.7446 34.7959L26.7329 34.7988M26.3442 34.2715L26.7329 34.7988M26.3442 34.2715L26.7329 34.7988M26.3442 34.2715L25.9585 34.6973M26.7329 34.7988L26.2124 34.9316M26.7329 34.7988L26.8481 34.9541M26.7329 34.7988L26.2124 34.9316M26.7329 34.7988L26.8481 34.9541M25.9585 34.6973L26.2124 34.9316M25.9585 34.6973L26.2124 34.9316M25.9585 34.6973L25.7729 34.9004C25.8161 34.9396 25.8691 34.9748 25.9282 35.0068M26.3901 35.1123C26.5713 35.1032 26.7301 35.0395 26.8481 34.9541M26.3901 35.1123L26.1978 34.9414M26.3901 35.1123L26.1978 34.9414M26.3901 35.1123C26.3589 35.1139 26.3269 35.1141 26.2944 35.1123C26.1531 35.1043 26.0299 35.0621 25.9282 35.0068M26.8481 34.9541C26.8516 34.9516 26.8555 34.9498 26.8589 34.9473M25.9282 35.0068L26.1978 34.9414M25.9282 35.0068L26.1978 34.9414M26.8589 34.9473L26.7515 34.8057M26.8589 34.9473L26.7515 34.8057M26.8589 34.9473L26.9585 34.8643C26.9654 34.8579 26.9715 34.851 26.978 34.8447C26.9804 34.8135 26.9797 34.7818 26.981 34.75M26.7515 34.8057L26.981 34.75M26.7515 34.8057L26.981 34.75" fill="white" stroke="white" stroke-width="3"/>
<path d="M30.3843 34.5801L29.9966 35.002M30.3843 34.5801L30.6431 34.8193M30.3843 34.5801L29.9966 35.002M30.3843 34.5801L30.6431 34.8193M29.9966 35.002L30.0972 35.1025M29.9966 35.002L29.9956 35.001M30.0972 35.1025C30.2933 35.0735 30.4892 34.9799 30.6431 34.8193M30.0972 35.1025C30.0446 35.1103 29.9923 35.1146 29.9409 35.1133C29.9258 35.1129 29.9107 35.1114 29.896 35.1104M30.0972 35.1025L29.9956 35.001M30.6431 34.8193C30.6466 34.8157 30.6504 34.8123 30.6538 34.8086C30.656 34.7555 30.6606 34.698 30.6606 34.6357L30.6538 34.4648C30.6291 34.4373 30.6026 34.4072 30.5708 34.3779L30.5688 34.376C30.4353 34.254 30.2126 34.1454 29.939 34.1572C29.673 34.1688 29.4836 34.2874 29.3833 34.3877C29.3756 34.3954 29.3684 34.4047 29.3599 34.4141C29.3481 34.5607 29.3504 34.7153 29.3628 34.8613C29.3701 34.8693 29.3766 34.8771 29.3833 34.8838L29.4858 34.9697C29.5922 35.043 29.7312 35.0981 29.896 35.1104M29.9956 35.001L29.896 35.1104M29.9956 35.001L29.896 35.1104" fill="white" stroke="white" stroke-width="3"/>
<path d="M33.6558 34.1602C33.4076 34.154 33.1379 34.2539 32.9419 34.4658C32.9398 34.5187 32.936 34.5758 32.936 34.6377C32.936 34.6993 32.9398 34.756 32.9419 34.8086L33.0259 34.8965L33.0278 34.8984C33.1593 35.0183 33.3775 35.1242 33.645 35.1162H33.6675C33.8625 35.1058 34.0153 35.037 34.1216 34.9619L34.2134 34.8857L34.2358 34.8604C34.2476 34.7137 34.2453 34.5592 34.2329 34.4131C34.2256 34.4051 34.2201 34.3964 34.2134 34.3896C34.094 34.2703 33.9018 34.1663 33.6558 34.1602Z" fill="white" stroke="white" stroke-width="3"/>
<path d="M18.7817 38.248L19.23 37.959C19.2145 37.9576 19.199 37.9547 19.1831 37.9541C18.9576 37.9457 18.7816 38.021 18.6714 38.0977M18.7817 38.248L18.6714 38.0977M18.7817 38.248L18.5181 38.4189C18.5181 38.3527 18.5201 38.2865 18.5249 38.2217C18.5634 38.1831 18.6086 38.143 18.6616 38.1035C18.6647 38.1013 18.6682 38.0998 18.6714 38.0977M18.7817 38.248L18.6714 38.0977M19.7339 38.1709C19.6174 38.0682 19.4485 37.981 19.2427 37.96L19.1724 38.0059M19.7339 38.1709L19.5649 38.3545M19.7339 38.1709C19.7386 38.1751 19.744 38.1784 19.7485 38.1826C19.7725 38.2053 19.7933 38.2284 19.813 38.25C19.8178 38.3552 19.8167 38.4639 19.8081 38.5703M19.7339 38.1709L19.5649 38.3545M19.1724 38.0059L19.5649 38.3545M19.1724 38.0059L19.8081 38.5703M19.1724 38.0059L19.1616 38.0137M19.5649 38.3545L19.8081 38.5703M19.8081 38.5703C19.8071 38.5828 19.8044 38.595 19.8032 38.6074M19.1616 38.0137L19.8032 38.6074M19.1616 38.0137L19.8032 38.6074M19.1616 38.0137L18.7905 38.2607M19.8032 38.6074C19.8028 38.612 19.8027 38.6166 19.8022 38.6211C19.6385 38.7897 19.4384 38.8717 19.2524 38.8926M19.2524 38.8926L18.7905 38.2607M19.2524 38.8926C19.1952 38.899 19.1393 38.9008 19.0864 38.8965C18.8965 38.8809 18.689 38.7958 18.5269 38.626C18.5224 38.566 18.5176 38.5048 18.5171 38.4434L18.7905 38.2607M19.2524 38.8926L18.7905 38.2607" fill="white" stroke="white" stroke-width="3"/>
<path d="M22.1943 38.6895C22.3734 38.8522 22.5962 38.9161 22.8018 38.9033C22.973 38.8926 23.2096 38.8182 23.4043 38.6152C23.4183 38.4841 23.4197 38.3476 23.4111 38.2168C23.4004 38.2051 23.3908 38.1916 23.3789 38.1797C23.3073 38.1081 23.248 38.0728 23.2061 38.0518C23.1806 38.039 23.1385 38.0206 23.0791 38.0029C23.0279 37.9877 22.9122 37.9571 22.752 37.957C22.5918 37.957 22.4761 37.9876 22.4248 38.0029C22.3655 38.0206 22.3233 38.039 22.2979 38.0518C22.2559 38.0728 22.1957 38.108 22.124 38.1797C22.1184 38.1853 22.1137 38.1917 22.1084 38.1973C22.0959 38.3304 22.096 38.4693 22.1074 38.6025C22.1326 38.631 22.1621 38.6597 22.1943 38.6895Z" fill="white" stroke="white" stroke-width="3"/>
<path d="M25.7007 38.2607C25.7016 38.2522 25.7036 38.2438 25.7046 38.2354C25.8832 38.0565 26.1821 37.9149 26.5288 37.9561C26.7412 37.9813 26.8852 38.0671 26.9751 38.1387C26.9813 38.2118 26.9834 38.2877 26.9839 38.3643L25.7222 38.2803M25.7007 38.2607L25.7222 38.2803M25.7007 38.2607L25.6987 38.2783M25.7007 38.2607L25.7222 38.2803M25.7222 38.2803L25.6987 38.2783M25.6987 38.2783L26.9849 38.418C26.984 38.4935 26.9795 38.569 26.9731 38.6426C26.9383 38.6772 26.8998 38.713 26.855 38.7471C26.7143 38.8537 26.5418 38.9091 26.3608 38.9043C26.1901 38.8998 25.9527 38.8362 25.7476 38.6377C25.7255 38.6156 25.7063 38.5933 25.688 38.5723C25.6872 38.4892 25.6911 38.393 25.6987 38.2783Z" fill="white" stroke="white" stroke-width="3"/>
<path d="M29.522 38.3232L30.0991 38.9004M29.522 38.3232L29.98 38M29.522 38.3232L30.0991 38.9004M29.522 38.3232L29.3618 38.4355M30.0991 38.9004C30.2706 38.8795 30.4739 38.8023 30.647 38.6152C30.6494 38.6126 30.6514 38.6091 30.6538 38.6064C30.6636 38.4933 30.6672 38.3761 30.6597 38.2617C30.6541 38.2544 30.6499 38.2456 30.644 38.2383C30.5557 38.1284 30.4708 38.0684 30.4497 38.0537C30.4454 38.0511 30.4397 38.0471 30.4321 38.043C30.4139 38.0331 30.384 38.0177 30.3433 38.0029C30.2587 37.9723 30.1301 37.9425 29.9722 37.9502C29.9582 37.9509 29.9446 37.9539 29.9312 37.9551M30.0991 38.9004C30.0513 38.9062 30.0059 38.9081 29.9644 38.9062C29.8037 38.8989 29.5642 38.8334 29.3638 38.627C29.3629 38.5772 29.3608 38.5228 29.3608 38.4639L29.3618 38.4355M29.9312 37.9551L29.98 38M29.9312 37.9551L29.98 38M29.9312 37.9551C29.6069 37.9835 29.4194 38.1475 29.3833 38.1836C29.3784 38.1885 29.3744 38.1943 29.3696 38.1992C29.3652 38.2712 29.3622 38.3498 29.3618 38.4355M29.98 38L29.3618 38.4355" fill="white" stroke="white" stroke-width="3"/>
<path d="M32.937 38.2607C32.9296 38.3735 32.9326 38.4889 32.9419 38.6006C32.9732 38.6379 33.0071 38.6717 33.0415 38.7031C33.2184 38.858 33.4352 38.9197 33.6362 38.9072C33.8052 38.8967 34.0377 38.8239 34.231 38.627C34.232 38.5711 34.2358 38.5099 34.2358 38.4424L34.2349 38.4355C34.2348 38.3494 34.2318 38.272 34.229 38.2021C34.2235 38.1964 34.2192 38.1894 34.2134 38.1836C34.1756 38.1458 33.9742 37.9673 33.6245 37.9502C33.4663 37.9424 33.338 37.9722 33.2534 38.0029C33.2126 38.0177 33.1828 38.0331 33.1646 38.043C33.1565 38.0474 33.1503 38.0511 33.146 38.0537C33.1232 38.0698 33.0383 38.1321 32.9497 38.2432C32.9452 38.2488 32.9413 38.2551 32.937 38.2607Z" fill="white" stroke="white" stroke-width="3"/>
<path d="M19.4663 42.0977L19.7817 42.4004M19.4663 42.0977L19.4536 42.1162M19.4663 42.0977L19.7817 42.4004M19.4663 42.0977L19.4536 42.1162M19.7817 42.4004C19.7918 42.3898 19.8008 42.3787 19.8101 42.3682C19.8232 42.2598 19.8261 42.1487 19.8208 42.04C19.8188 42.0375 19.8179 42.0338 19.8159 42.0312C19.7373 41.9323 19.6602 41.8728 19.6274 41.8486C19.5657 41.813 19.3705 41.722 19.0825 41.7451M19.7817 42.4004C19.7792 42.403 19.7765 42.4055 19.7739 42.4082C19.7692 42.413 19.764 42.4172 19.7593 42.4219M19.0825 41.7451L19.4536 42.1162M19.0825 41.7451L19.1294 41.792M19.0825 41.7451C19.0635 41.7466 19.0438 41.7454 19.0239 41.748C18.8106 41.7761 18.6458 41.8584 18.5405 41.9336C18.5388 41.9348 18.5373 41.9363 18.5356 41.9375C18.5304 42.0213 18.5269 42.1144 18.5269 42.2178C18.5269 42.2898 18.5296 42.3551 18.5308 42.4141C18.7363 42.6266 18.9678 42.6787 19.0864 42.6875C19.1274 42.6905 19.1794 42.6901 19.2388 42.6826M19.4536 42.1162L19.7593 42.4219M19.2388 42.6826L18.5884 42.1699M19.2388 42.6826L18.5884 42.1699M19.2388 42.6826C19.387 42.664 19.5796 42.5984 19.7593 42.4219M18.5884 42.1699L19.1294 41.792M18.5884 42.1699L19.1294 41.792M19.1294 41.792L19.7593 42.4219" fill="white" stroke="white" stroke-width="3"/>
<path d="M22.1943 42.4824C22.3734 42.6451 22.5962 42.7091 22.8018 42.6963C22.973 42.6856 23.2096 42.6112 23.4043 42.4082C23.4183 42.277 23.4197 42.1405 23.4111 42.0098C23.4004 41.9981 23.3908 41.9846 23.3789 41.9727C23.3073 41.9011 23.248 41.8657 23.2061 41.8447C23.1806 41.832 23.1385 41.8136 23.0791 41.7959C23.0279 41.7806 22.9122 41.75 22.752 41.75C22.5918 41.75 22.4761 41.7806 22.4248 41.7959C22.3655 41.8136 22.3233 41.832 22.2979 41.8447C22.2559 41.8657 22.1957 41.9009 22.124 41.9727C22.1184 41.9783 22.1137 41.9847 22.1084 41.9902C22.0959 42.1234 22.096 42.2622 22.1074 42.3955C22.1326 42.424 22.1621 42.4527 22.1943 42.4824Z" fill="white" stroke="white" stroke-width="3"/>
<path d="M25.6987 42.0898C25.7016 42.063 25.7059 42.0359 25.7095 42.0088C25.779 41.9263 25.8438 41.8745 25.8745 41.8516C25.9396 41.8134 26.1697 41.7005 26.5063 41.751C26.7183 41.7828 26.8708 41.8644 26.9683 41.9346C26.973 42.0092 26.9745 42.0914 26.9751 42.1816L25.6987 42.0898ZM25.6987 42.0898C25.6912 42.1956 25.6873 42.2855 25.688 42.3643C25.7053 42.3841 25.7236 42.4048 25.7437 42.4248L25.8521 42.5205C25.9586 42.6016 26.0549 42.6408 26.1118 42.6602C26.1561 42.6752 26.1967 42.6849 26.2339 42.6904M25.6987 42.0898L26.0581 42.1289M26.2339 42.6904L26.3823 42.5801M26.2339 42.6904L26.3823 42.5801M26.2339 42.6904C26.265 42.695 26.2936 42.6971 26.3198 42.6973C26.3564 42.6975 26.4062 42.6926 26.4673 42.6797M26.3823 42.5801L26.0581 42.1289M26.3823 42.5801L26.0581 42.1289M26.0581 42.1289L26.0933 42.1328M26.4673 42.6797L26.0933 42.1328M26.4673 42.6797L26.3931 42.5713M26.4673 42.6797C26.4998 42.6728 26.5363 42.665 26.5747 42.6514C26.6655 42.6192 26.8215 42.5469 26.9731 42.3926C26.9739 42.3482 26.976 42.3005 26.9761 42.249M26.0933 42.1328L26.3931 42.5713M26.0933 42.1328L26.854 42.2148M26.3931 42.5713L26.8618 42.2197M26.3931 42.5713L26.8618 42.2197M26.8618 42.2197L26.854 42.2148M26.8618 42.2197L26.854 42.2148M26.854 42.2148L26.9448 42.2246M26.9761 42.249L26.9448 42.2246M26.9761 42.249L26.9448 42.2246M26.9761 42.249C26.9761 42.2419 26.9761 42.2348 26.9761 42.2275L26.9448 42.2246" fill="white" stroke="white" stroke-width="3"/>
<path d="M29.522 42.1084L30.0991 42.6855M29.522 42.1084L29.98 41.7852M29.522 42.1084L30.0991 42.6855M29.522 42.1084L29.3618 42.2207M30.0991 42.6855C30.2706 42.6646 30.4739 42.5874 30.647 42.4004C30.6494 42.3978 30.6514 42.3942 30.6538 42.3916C30.6636 42.2784 30.6672 42.1613 30.6597 42.0469C30.6541 42.0395 30.6499 42.0307 30.644 42.0234C30.5557 41.9136 30.4708 41.8536 30.4497 41.8389C30.4454 41.8363 30.4397 41.8322 30.4321 41.8281C30.4139 41.8183 30.384 41.8029 30.3433 41.7881C30.2587 41.7574 30.1301 41.7276 29.9722 41.7354C29.9582 41.736 29.9446 41.739 29.9312 41.7402M30.0991 42.6855C30.0513 42.6914 30.0059 42.6933 29.9644 42.6914C29.8037 42.6841 29.5642 42.6186 29.3638 42.4121C29.3629 42.3623 29.3608 42.308 29.3608 42.249L29.3618 42.2207M29.9312 41.7402L29.98 41.7852M29.9312 41.7402L29.98 41.7852M29.9312 41.7402C29.6069 41.7687 29.4194 41.9326 29.3833 41.9688C29.3784 41.9737 29.3744 41.9795 29.3696 41.9844C29.3652 42.0564 29.3622 42.1349 29.3618 42.2207M29.98 41.7852L29.3618 42.2207" fill="white" stroke="white" stroke-width="3"/>
<path d="M32.937 42.0459C32.9296 42.1586 32.9326 42.2741 32.9419 42.3857C32.9732 42.4231 33.0071 42.4569 33.0415 42.4883C33.2184 42.6431 33.4352 42.7049 33.6362 42.6924C33.8052 42.6818 34.0377 42.609 34.231 42.4121C34.232 42.3563 34.2358 42.295 34.2358 42.2275L34.2349 42.2207C34.2348 42.1345 34.2318 42.0572 34.229 41.9873C34.2235 41.9816 34.2192 41.9745 34.2134 41.9688C34.1756 41.931 33.9742 41.7525 33.6245 41.7354C33.4663 41.7276 33.338 41.7574 33.2534 41.7881C33.2126 41.8029 33.1828 41.8183 33.1646 41.8281C33.1565 41.8325 33.1503 41.8362 33.146 41.8389C33.1232 41.8549 33.0383 41.9173 32.9497 42.0283C32.9452 42.034 32.9413 42.0403 32.937 42.0459Z" fill="white" stroke="white" stroke-width="3"/>
<mask id="path-41-inside-2_38_1085" fill="white">
<path d="M26.9229 18.5927C26.6087 18.9069 26.5871 19.0586 26.8254 19.3945C26.9771 19.622 27.0638 19.6328 28.4939 19.6328C29.7181 19.6328 30.0323 19.6003 30.1623 19.4595C30.379 19.2536 30.379 18.8744 30.184 18.5927C30.0431 18.4086 29.8698 18.3869 28.613 18.3544C27.2263 18.3111 27.1938 18.3219 26.9229 18.5927Z"/>
</mask>
<path d="M26.9229 18.5927C26.6087 18.9069 26.5871 19.0586 26.8254 19.3945C26.9771 19.622 27.0638 19.6328 28.4939 19.6328C29.7181 19.6328 30.0323 19.6003 30.1623 19.4595C30.379 19.2536 30.379 18.8744 30.184 18.5927C30.0431 18.4086 29.8698 18.3869 28.613 18.3544C27.2263 18.3111 27.1938 18.3219 26.9229 18.5927Z" fill="white"/>
<path d="M26.8254 19.3945L29.2719 17.6582L29.2973 17.6939L29.3216 17.7304L26.8254 19.3945ZM30.1623 19.4595L27.9579 17.4246L28.0247 17.3523L28.096 17.2845L30.1623 19.4595ZM30.184 18.5927L32.567 16.7704L32.6101 16.8268L32.6505 16.8851L30.184 18.5927ZM28.613 18.3544L28.5355 21.3534L28.5274 21.3532L28.5193 21.3529L28.613 18.3544ZM26.9229 18.5927L29.0442 20.7141C29.019 20.7393 29.1185 20.6462 29.2367 20.469C29.3687 20.2713 29.5771 19.8912 29.6438 19.3576C29.7128 18.8056 29.5983 18.3496 29.4809 18.0563C29.4263 17.92 29.3716 17.8194 29.3372 17.7608C29.3028 17.7019 29.2772 17.6656 29.2719 17.6582L26.8254 19.3945L24.3789 21.1307C24.2164 20.9018 23.5232 19.9491 23.6901 18.6134C23.8441 17.3819 24.6493 16.6237 24.8016 16.4714L26.9229 18.5927ZM26.8254 19.3945L29.3216 17.7304C29.3057 17.7066 29.0564 17.3133 28.5612 16.9977C28.0952 16.7008 27.6819 16.6401 27.6019 16.6287C27.523 16.6175 27.5214 16.6241 27.716 16.6283C27.8896 16.632 28.1304 16.6328 28.4939 16.6328V19.6328V22.6328C27.9017 22.6328 27.2445 22.6382 26.7585 22.5692C26.4592 22.5267 25.9063 22.4206 25.3368 22.0577C24.738 21.6761 24.4209 21.196 24.3293 21.0586L26.8254 19.3945ZM28.4939 19.6328V16.6328C28.7908 16.6328 29.0101 16.6308 29.1755 16.6265C29.2569 16.6244 29.3177 16.622 29.3624 16.6195C29.3844 16.6183 29.4007 16.6172 29.4122 16.6164C29.4238 16.6155 29.4289 16.615 29.4286 16.615C29.4284 16.615 29.4207 16.6158 29.4068 16.6178C29.393 16.6197 29.3705 16.6232 29.3408 16.6288C29.2849 16.6394 29.1811 16.6619 29.0487 16.7072C28.9136 16.7534 28.7334 16.8284 28.5349 16.9501C28.3296 17.076 28.1334 17.2344 27.9579 17.4246L30.1623 19.4595L32.3667 21.4943C31.4861 22.4483 30.3466 22.5519 30.0482 22.5829C29.62 22.6274 29.0794 22.6328 28.4939 22.6328V19.6328ZM30.1623 19.4595L28.096 17.2845C27.5147 17.8367 27.3365 18.514 27.328 19.0024C27.3195 19.4892 27.4659 19.9371 27.7174 20.3004L30.184 18.5927L32.6505 16.8851C33.4191 17.9952 33.8267 20.1162 32.2285 21.6345L30.1623 19.4595ZM30.184 18.5927L27.8009 20.4151C27.8649 20.4988 27.9768 20.6337 28.1402 20.7783C28.3097 20.9282 28.4961 21.0544 28.6915 21.1542C29.0516 21.3381 29.3418 21.379 29.3746 21.3839C29.4174 21.3903 29.3939 21.3842 29.2233 21.3759C29.0659 21.3683 28.8501 21.3615 28.5355 21.3534L28.613 18.3544L28.6906 15.3554C29.2391 15.3696 29.8161 15.3834 30.2593 15.4495C30.5101 15.4869 30.9487 15.5698 31.4201 15.8106C31.9739 16.0933 32.3369 16.4695 32.567 16.7704L30.184 18.5927ZM28.613 18.3544L28.5193 21.3529C28.1641 21.3418 27.9438 21.3359 27.7894 21.3352C27.716 21.3349 27.6817 21.336 27.6724 21.3364C27.6617 21.3369 27.7042 21.3357 27.779 21.3248C27.8569 21.3136 27.9903 21.2891 28.1552 21.2344C28.3294 21.1767 28.5045 21.0966 28.672 20.9941C28.8325 20.8959 28.946 20.8014 29.005 20.7492C29.0528 20.7069 29.0825 20.6758 29.0442 20.7141L26.9229 18.5927L24.8016 16.4714C24.8337 16.4393 25.1265 16.1295 25.5405 15.8762C26.0359 15.5731 26.5225 15.4442 26.92 15.3867C27.4658 15.3077 28.1641 15.3389 28.7067 15.3559L28.613 18.3544Z" fill="white" mask="url(#path-41-inside-2_38_1085)"/>
</svg>
