<svg width="79" height="89" viewBox="0 0 79 89" fill="none" xmlns="http://www.w3.org/2000/svg">
<path d="M6.5 44.1094V12.1094H4L7 3.60938H12L15 12.1094H12.5V44.1094M6.5 44.1094H12.5M6.5 44.1094L2 44.6094V48.1094L5 49.6094V53.6094L2 55.6094V80.6094L7 86.6094H13L17 80.6094V55.6094L14 53.6094V49.6094L16.5 48.1094V44.6094L12.5 44.1094M8.5 57.6094V81.1094M8.5 57.6094L11 81.1094M8.5 57.6094H9.125M8.5 81.1094L11 57.6094M8.5 81.1094H9M11 81.1094V57.6094M11 81.1094H10.375M11 57.6094H10.375M9.75 81.1094V57.6094M9.75 81.1094H9M9.75 81.1094H10.375M9.75 57.6094H9.125M9.75 57.6094H10.375M9.125 57.6094L9 81.1094M10.375 81.1094V57.6094" stroke="#D2153D" stroke-width="3"/>
<path d="M36.5 44.1094V12.1094L39 2.60938H40L42.5 12.1094V44.1094M36.5 44.1094H42.5M36.5 44.1094L32 44.6094V48.1094L35 49.6094V53.6094L32 55.6094V80.6094L37 86.6094H43L47 80.6094V55.6094L44 53.6094V49.6094L46.5 48.1094V44.6094L42.5 44.1094M38.5 57.6094V81.1094M38.5 57.6094L41 81.1094M38.5 57.6094H39.125M38.5 81.1094L41 57.6094M38.5 81.1094H39M41 81.1094V57.6094M41 81.1094H40.375M41 57.6094H40.375M39.75 81.1094V57.6094M39.75 81.1094H39M39.75 81.1094H40.375M39.75 57.6094H39.125M39.75 57.6094H40.375M39.125 57.6094L39 81.1094M40.375 81.1094V57.6094" stroke="#D2153D" stroke-width="3"/>
<path d="M66.5 44.1094V15.6094H64.5V2.10938H75V15.6094H72.5V44.1094M66.5 44.1094H72.5M66.5 44.1094L62 44.6094V48.1094L65 49.6094V53.6094L62 55.6094V80.6094L67 86.6094H73L77 80.6094V55.6094L74 53.6094V49.6094L76.5 48.1094V44.6094L72.5 44.1094M68.5 57.6094V81.1094M68.5 57.6094L71 81.1094M68.5 57.6094H69.125M68.5 81.1094L71 57.6094M68.5 81.1094H69M71 81.1094V57.6094M71 81.1094H70.375M71 57.6094H70.375M69.75 81.1094V57.6094M69.75 81.1094H69M69.75 81.1094H70.375M69.75 57.6094H69.125M69.75 57.6094H70.375M69.125 57.6094L69 81.1094M70.375 81.1094V57.6094" stroke="#D2153D" stroke-width="3"/>
</svg>
