<svg width="49" height="42" viewBox="0 0 49 42" fill="none" xmlns="http://www.w3.org/2000/svg">
<path d="M0 42L24.3158 0L48.6316 42H0ZM7.62632 37.5789H41.0053L24.3158 8.84211L7.62632 37.5789ZM24.3158 35.3684C24.9421 35.3684 25.4675 35.1562 25.8919 34.7318C26.3163 34.3074 26.5278 33.7827 26.5263 33.1579C26.5248 32.5331 26.3126 32.0084 25.8897 31.584C25.4667 31.1596 24.9421 30.9474 24.3158 30.9474C23.6895 30.9474 23.1648 31.1596 22.7419 31.584C22.3189 32.0084 22.1067 32.5331 22.1053 33.1579C22.1038 33.7827 22.316 34.3081 22.7419 34.734C23.1678 35.1599 23.6924 35.3714 24.3158 35.3684ZM22.1053 28.7368H26.5263V17.6842H22.1053V28.7368Z" fill="white"/>
</svg>
