<svg width="42" height="47" viewBox="0 0 42 47" fill="none" xmlns="http://www.w3.org/2000/svg">
<path d="M18.942 0.729418C14.77 1.16342 10.794 2.66142 7.41999 5.04141C5.726 6.24541 3.402 8.55541 2.24 10.2214C1.162 11.7474 0 13.8334 0 14.2534C0 14.7574 0.462 15.1914 0.979999 15.1914C1.54 15.1914 1.694 15.0234 2.772 13.1614C8.39999 3.55742 20.482 -0.0405817 30.408 4.94341C33.334 6.41341 35.63 8.27541 37.646 10.7954C38.038 11.2994 38.36 11.7614 38.36 11.8174C38.36 11.8734 36.19 11.9294 33.53 11.9294H28.686L28.35 12.2794C27.93 12.6854 27.902 13.1754 28.266 13.6234L28.532 13.9594L34.384 14.0014C38.416 14.0294 40.362 13.9874 40.614 13.8894C40.81 13.8054 41.048 13.5674 41.146 13.3854C41.258 13.1474 41.3 11.2574 41.3 7.25341C41.3 1.61142 41.286 1.45742 41.006 1.09342C40.656 0.659417 40.082 0.617417 39.606 0.995418C39.27 1.26142 39.27 1.26142 39.2 5.32141L39.13 9.38141L38.29 8.41541C37.282 7.25341 35.518 5.68541 34.048 4.67741C31.584 2.96942 27.734 1.42942 24.71 0.953417C22.904 0.673417 20.398 0.575418 18.942 0.729418Z" fill="white"/>
<path d="M40.2502 32.8186C40.1242 33.0006 39.6762 33.7426 39.2422 34.4706C36.1342 39.7486 31.2202 43.2486 25.0602 44.5646C23.1002 44.9846 19.0542 45.0266 17.2202 44.6346C11.8442 43.5146 7.60219 40.9526 4.35419 36.8646C3.96219 36.3606 3.64019 35.8986 3.64019 35.8426C3.64019 35.7866 5.83819 35.7306 8.52619 35.7306H13.4262L13.7062 35.3666C14.2802 34.6246 13.9862 33.9526 13.0062 33.7566C12.0542 33.5746 1.76419 33.6026 1.35819 33.7846C1.16219 33.8686 0.938195 34.0926 0.854195 34.2886C0.756195 34.5126 0.700195 36.4726 0.700195 40.4066C0.700195 46.0486 0.714195 46.2026 0.994195 46.5666C1.35819 47.0286 2.07219 47.0706 2.46419 46.6366C2.70219 46.3706 2.73019 46.0206 2.80019 42.2966L2.87019 38.2646L3.64019 39.1886C4.63419 40.3786 6.44019 41.9606 8.03619 43.0386C16.1562 48.4706 26.5582 48.3026 34.5802 42.6186C36.2742 41.4146 38.5842 39.1046 39.7882 37.4106C40.8522 35.9266 42.0002 33.8126 42.0002 33.3646C42.0002 32.5806 40.6982 32.1886 40.2502 32.8186Z" fill="white"/>
</svg>
