<svg width="42" height="42" viewBox="0 0 42 42" fill="none" xmlns="http://www.w3.org/2000/svg">
<mask id="path-1-inside-1_38_1012" fill="white">
<path d="M30.9973 23.5895C30.4252 23.181 29.8275 22.9091 29.2144 22.7725C28.8518 22.7031 28.4736 22.6769 28.0835 22.6982C27.7148 22.7187 27.3633 22.7671 27.0298 22.8426C26.7796 22.9119 26.5286 23.0022 26.2772 23.1129C25.5315 23.4419 24.8871 23.8561 24.358 24.3569C23.8568 24.886 23.4425 25.5308 23.1136 26.2761C23.0028 26.5271 22.9126 26.7781 22.8433 27.0283C22.7678 27.3622 22.719 27.7133 22.6989 28.082C22.6776 28.4721 22.7038 28.8503 22.7731 29.2129C22.9097 29.8261 23.1817 30.4237 23.5902 30.9958C23.7497 31.219 23.9216 31.4224 24.1054 31.6062C24.9281 32.4277 25.9851 32.8654 27.1988 33.0052C27.5647 33.0471 27.942 33.0741 28.287 33.189C28.497 33.2587 28.6627 33.3563 28.7824 33.4769C29.0552 33.7476 29.0954 34.1373 28.885 34.5942C28.7558 34.8748 28.5692 35.1459 28.3534 35.367L28.239 35.4843C28.0778 35.6451 27.9761 35.7468 27.9498 35.773C27.8214 35.9026 27.6996 36.0253 27.5782 36.1483L27.4568 36.2681C27.0253 36.702 26.5918 37.1344 26.1582 37.5663C25.2247 38.5023 24.2891 39.4358 23.3535 40.3701C23.0459 40.6778 22.7383 40.9854 22.4307 41.2926C22.2887 41.4341 22.1407 41.5543 21.9885 41.6531C21.9147 41.7032 21.8453 41.745 21.776 41.7827C20.9721 42.1884 20.0767 42.0256 19.3462 41.2955C19.1247 41.074 18.9106 40.8599 18.6961 40.6458C17.4554 39.405 16.2154 38.1635 14.9731 36.9244C14.6207 36.5728 14.2704 36.2238 13.9198 35.8747C13.6687 35.625 13.4001 35.3887 13.1175 35.175C12.8829 34.9974 12.6421 34.8649 12.4013 34.7759C11.5334 34.4757 10.7028 34.6935 10.159 35.3198C10.0027 35.5167 9.87185 35.7492 9.77382 36.0146C9.63313 36.3944 9.58514 36.8132 9.53182 37.2188C9.33084 38.7582 8.4736 40.0256 7.23572 40.6089C6.92892 40.7586 6.60038 40.8668 6.25543 40.928C5.92935 40.9858 5.60122 40.9981 5.27719 40.9706C4.18574 40.9152 3.2477 40.4337 2.46716 39.6347C2.39825 39.5662 2.38102 39.549 2.36421 39.5318C1.56521 38.7516 1.08368 37.8132 1.0283 36.7221C1.00041 36.3981 1.01313 36.07 1.07096 35.7439C1.13208 35.399 1.24036 35.07 1.39007 34.7636C1.97332 33.5257 3.24114 32.6689 4.78007 32.4679C5.18572 32.415 5.6045 32.3666 5.98431 32.2259C6.26897 32.1209 6.51589 31.9778 6.72138 31.8063C7.31776 31.267 7.52489 30.468 7.24803 29.6595C7.134 29.3581 7.00193 29.1173 6.82433 28.8827C6.61063 28.6005 6.37438 28.3318 6.12459 28.0808C5.77554 27.7301 5.42608 27.3798 5.07662 27.0296C3.97246 25.9229 2.8683 24.8196 1.76455 23.7163L1.35315 23.3049C1.13905 23.0908 0.924533 22.8762 0.727244 22.6785C-0.0270471 21.9238 -0.189472 21.0289 0.21618 20.2249C0.253915 20.1556 0.295752 20.0867 0.34251 20.0178C0.444641 19.8603 0.564819 19.7122 0.706326 19.5703C1.01354 19.2627 1.32116 18.9551 1.62878 18.6474C2.56273 17.7119 3.49667 16.7763 4.43266 15.8427C4.86457 15.4092 5.29647 14.9757 5.73083 14.5442L5.8506 14.4228C5.97324 14.3009 6.09629 14.1795 6.21893 14.0577C6.25174 14.0245 6.35346 13.9228 6.51425 13.7616L6.63155 13.6471C6.85263 13.4314 7.12375 13.2452 7.4043 13.1156C7.86122 12.9052 8.25047 12.9454 8.52159 13.2181C8.64217 13.3379 8.73979 13.5036 8.80952 13.7136C8.92396 14.0585 8.95103 14.4359 8.99328 14.8018C9.13314 16.0154 9.57079 17.072 10.3923 17.8948C10.5765 18.0786 10.7795 18.2504 11.0027 18.41C11.5748 18.8185 12.1725 19.0904 12.7857 19.227C13.1482 19.2963 13.5264 19.3226 13.9165 19.3013C14.2852 19.2807 14.6367 19.2323 14.9702 19.1569C15.2204 19.0876 15.4714 18.9973 15.7228 18.8866C16.4685 18.5576 17.1129 18.1434 17.642 17.6425C18.1432 17.1134 18.5575 16.4687 18.8864 15.7234C18.9972 15.4724 19.0874 15.2214 19.1567 14.9712C19.2322 14.6373 19.281 14.2862 19.3011 13.9174C19.3224 13.5274 19.2962 13.1492 19.2269 12.7866C19.0903 12.1734 18.8183 11.5758 18.4098 11.0036C18.2503 10.7805 18.0784 10.5771 17.8947 10.3933C17.0719 9.57176 16.0149 9.13411 14.8012 8.99425C14.4353 8.95241 14.058 8.92534 13.713 8.81049C13.503 8.74076 13.3373 8.64315 13.2176 8.52256C12.9448 8.25185 12.9046 7.86219 13.115 7.40527C13.2442 7.12472 13.4308 6.8536 13.6466 6.63252L13.761 6.51522C13.9222 6.35443 14.0239 6.25271 14.0502 6.22646C14.1786 6.09685 14.3004 5.97421 14.4218 5.85116L14.5432 5.73139C14.9747 5.29744 15.4082 4.86513 15.8418 4.43322C16.7753 3.49723 17.7109 2.5637 18.6465 1.62975C18.9541 1.32213 19.2617 1.01451 19.5693 0.707296C19.7113 0.565789 19.8593 0.445611 20.0115 0.346762C20.0853 0.296722 20.1547 0.254885 20.224 0.21715C21.0279 -0.188502 21.9233 -0.0256669 22.6538 0.704425C22.8753 0.925913 23.0894 1.14002 23.3039 1.35412C24.5446 2.59487 25.7846 3.83644 27.0269 5.07554C27.3793 5.42705 27.7296 5.7761 28.0802 6.12515C28.3313 6.37494 28.5999 6.61119 28.8825 6.82489C29.1171 7.00249 29.3579 7.13497 29.5987 7.22398C30.4666 7.52422 31.2972 7.30642 31.841 6.6801C31.9973 6.48322 32.1282 6.25066 32.2262 5.98528C32.3669 5.60547 32.4149 5.18669 32.4682 4.78104C32.6692 3.2417 33.5264 1.97429 34.7643 1.39104C35.0711 1.24133 35.3996 1.13346 35.7446 1.07193C36.0706 1.0141 36.3988 1.00179 36.7228 1.02927C37.8143 1.08465 38.7523 1.56618 39.5328 2.36518C39.6017 2.43368 39.619 2.4509 39.6358 2.46813C40.4348 3.24826 40.9163 4.18672 40.9717 5.27775C40.9996 5.60178 40.9869 5.92991 40.929 6.25599C40.8679 6.60094 40.7596 6.92989 40.6099 7.23628C40.0267 8.47416 38.7589 9.33099 37.2199 9.53197C36.8143 9.58488 36.3955 9.63328 36.0157 9.77397C35.731 9.87897 35.4841 10.0221 35.2786 10.1936C34.6822 10.7329 34.4751 11.5319 34.752 12.3404C34.866 12.6418 34.9981 12.8826 35.1757 13.1172C35.3894 13.3994 35.6256 13.6681 35.8754 13.9191C36.2245 14.2698 36.5739 14.6201 36.9234 14.9703C38.1645 16.2144 39.4065 17.4543 40.6468 18.695C40.861 18.9091 41.0755 19.1236 41.2728 19.3214C42.0271 20.076 42.1895 20.971 41.7838 21.775C41.7461 21.8443 41.7043 21.9132 41.6575 21.9821C41.5554 22.1396 41.4352 22.2877 41.2937 22.4296C40.9865 22.7372 40.6788 23.0448 40.3712 23.3524C39.4373 24.288 38.5033 25.2236 37.5673 26.1571C37.1354 26.5907 36.7035 27.0242 36.2692 27.4557L36.1494 27.5771C36.0268 27.6989 35.9037 27.8204 35.7811 27.9422C35.7483 27.9754 35.6465 28.0771 35.4858 28.2383L35.3685 28.3527C35.1474 28.5685 34.8763 28.7547 34.5957 28.8843C34.1388 29.0947 33.7495 29.0545 33.4784 28.7818C33.3578 28.662 33.2602 28.4963 33.1905 28.2863C33.076 27.9414 33.049 27.564 33.0067 27.1981C32.8669 25.9845 32.4292 24.9279 31.6077 24.1051C31.4239 23.9209 31.2205 23.7487 30.9973 23.5895Z"/>
</mask>
<path d="M30.9973 23.5895C30.4252 23.181 29.8275 22.9091 29.2144 22.7725C28.8518 22.7031 28.4736 22.6769 28.0835 22.6982C27.7148 22.7187 27.3633 22.7671 27.0298 22.8426C26.7796 22.9119 26.5286 23.0022 26.2772 23.1129C25.5315 23.4419 24.8871 23.8561 24.358 24.3569C23.8568 24.886 23.4425 25.5308 23.1136 26.2761C23.0028 26.5271 22.9126 26.7781 22.8433 27.0283C22.7678 27.3622 22.719 27.7133 22.6989 28.082C22.6776 28.4721 22.7038 28.8503 22.7731 29.2129C22.9097 29.8261 23.1817 30.4237 23.5902 30.9958C23.7497 31.219 23.9216 31.4224 24.1054 31.6062C24.9281 32.4277 25.9851 32.8654 27.1988 33.0052C27.5647 33.0471 27.942 33.0741 28.287 33.189C28.497 33.2587 28.6627 33.3563 28.7824 33.4769C29.0552 33.7476 29.0954 34.1373 28.885 34.5942C28.7558 34.8748 28.5692 35.1459 28.3534 35.367L28.239 35.4843C28.0778 35.6451 27.9761 35.7468 27.9498 35.773C27.8214 35.9026 27.6996 36.0253 27.5782 36.1483L27.4568 36.2681C27.0253 36.702 26.5918 37.1344 26.1582 37.5663C25.2247 38.5023 24.2891 39.4358 23.3535 40.3701C23.0459 40.6778 22.7383 40.9854 22.4307 41.2926C22.2887 41.4341 22.1407 41.5543 21.9885 41.6531C21.9147 41.7032 21.8453 41.745 21.776 41.7827C20.9721 42.1884 20.0767 42.0256 19.3462 41.2955C19.1247 41.074 18.9106 40.8599 18.6961 40.6458C17.4554 39.405 16.2154 38.1635 14.9731 36.9244C14.6207 36.5728 14.2704 36.2238 13.9198 35.8747C13.6687 35.625 13.4001 35.3887 13.1175 35.175C12.8829 34.9974 12.6421 34.8649 12.4013 34.7759C11.5334 34.4757 10.7028 34.6935 10.159 35.3198C10.0027 35.5167 9.87185 35.7492 9.77382 36.0146C9.63313 36.3944 9.58514 36.8132 9.53182 37.2188C9.33084 38.7582 8.4736 40.0256 7.23572 40.6089C6.92892 40.7586 6.60038 40.8668 6.25543 40.928C5.92935 40.9858 5.60122 40.9981 5.27719 40.9706C4.18574 40.9152 3.2477 40.4337 2.46716 39.6347C2.39825 39.5662 2.38102 39.549 2.36421 39.5318C1.56521 38.7516 1.08368 37.8132 1.0283 36.7221C1.00041 36.3981 1.01313 36.07 1.07096 35.7439C1.13208 35.399 1.24036 35.07 1.39007 34.7636C1.97332 33.5257 3.24114 32.6689 4.78007 32.4679C5.18572 32.415 5.6045 32.3666 5.98431 32.2259C6.26897 32.1209 6.51589 31.9778 6.72138 31.8063C7.31776 31.267 7.52489 30.468 7.24803 29.6595C7.134 29.3581 7.00193 29.1173 6.82433 28.8827C6.61063 28.6005 6.37438 28.3318 6.12459 28.0808C5.77554 27.7301 5.42608 27.3798 5.07662 27.0296C3.97246 25.9229 2.8683 24.8196 1.76455 23.7163L1.35315 23.3049C1.13905 23.0908 0.924533 22.8762 0.727244 22.6785C-0.0270471 21.9238 -0.189472 21.0289 0.21618 20.2249C0.253915 20.1556 0.295752 20.0867 0.34251 20.0178C0.444641 19.8603 0.564819 19.7122 0.706326 19.5703C1.01354 19.2627 1.32116 18.9551 1.62878 18.6474C2.56273 17.7119 3.49667 16.7763 4.43266 15.8427C4.86457 15.4092 5.29647 14.9757 5.73083 14.5442L5.8506 14.4228C5.97324 14.3009 6.09629 14.1795 6.21893 14.0577C6.25174 14.0245 6.35346 13.9228 6.51425 13.7616L6.63155 13.6471C6.85263 13.4314 7.12375 13.2452 7.4043 13.1156C7.86122 12.9052 8.25047 12.9454 8.52159 13.2181C8.64217 13.3379 8.73979 13.5036 8.80952 13.7136C8.92396 14.0585 8.95103 14.4359 8.99328 14.8018C9.13314 16.0154 9.57079 17.072 10.3923 17.8948C10.5765 18.0786 10.7795 18.2504 11.0027 18.41C11.5748 18.8185 12.1725 19.0904 12.7857 19.227C13.1482 19.2963 13.5264 19.3226 13.9165 19.3013C14.2852 19.2807 14.6367 19.2323 14.9702 19.1569C15.2204 19.0876 15.4714 18.9973 15.7228 18.8866C16.4685 18.5576 17.1129 18.1434 17.642 17.6425C18.1432 17.1134 18.5575 16.4687 18.8864 15.7234C18.9972 15.4724 19.0874 15.2214 19.1567 14.9712C19.2322 14.6373 19.281 14.2862 19.3011 13.9174C19.3224 13.5274 19.2962 13.1492 19.2269 12.7866C19.0903 12.1734 18.8183 11.5758 18.4098 11.0036C18.2503 10.7805 18.0784 10.5771 17.8947 10.3933C17.0719 9.57176 16.0149 9.13411 14.8012 8.99425C14.4353 8.95241 14.058 8.92534 13.713 8.81049C13.503 8.74076 13.3373 8.64315 13.2176 8.52256C12.9448 8.25185 12.9046 7.86219 13.115 7.40527C13.2442 7.12472 13.4308 6.8536 13.6466 6.63252L13.761 6.51522C13.9222 6.35443 14.0239 6.25271 14.0502 6.22646C14.1786 6.09685 14.3004 5.97421 14.4218 5.85116L14.5432 5.73139C14.9747 5.29744 15.4082 4.86513 15.8418 4.43322C16.7753 3.49723 17.7109 2.5637 18.6465 1.62975C18.9541 1.32213 19.2617 1.01451 19.5693 0.707296C19.7113 0.565789 19.8593 0.445611 20.0115 0.346762C20.0853 0.296722 20.1547 0.254885 20.224 0.21715C21.0279 -0.188502 21.9233 -0.0256669 22.6538 0.704425C22.8753 0.925913 23.0894 1.14002 23.3039 1.35412C24.5446 2.59487 25.7846 3.83644 27.0269 5.07554C27.3793 5.42705 27.7296 5.7761 28.0802 6.12515C28.3313 6.37494 28.5999 6.61119 28.8825 6.82489C29.1171 7.00249 29.3579 7.13497 29.5987 7.22398C30.4666 7.52422 31.2972 7.30642 31.841 6.6801C31.9973 6.48322 32.1282 6.25066 32.2262 5.98528C32.3669 5.60547 32.4149 5.18669 32.4682 4.78104C32.6692 3.2417 33.5264 1.97429 34.7643 1.39104C35.0711 1.24133 35.3996 1.13346 35.7446 1.07193C36.0706 1.0141 36.3988 1.00179 36.7228 1.02927C37.8143 1.08465 38.7523 1.56618 39.5328 2.36518C39.6017 2.43368 39.619 2.4509 39.6358 2.46813C40.4348 3.24826 40.9163 4.18672 40.9717 5.27775C40.9996 5.60178 40.9869 5.92991 40.929 6.25599C40.8679 6.60094 40.7596 6.92989 40.6099 7.23628C40.0267 8.47416 38.7589 9.33099 37.2199 9.53197C36.8143 9.58488 36.3955 9.63328 36.0157 9.77397C35.731 9.87897 35.4841 10.0221 35.2786 10.1936C34.6822 10.7329 34.4751 11.5319 34.752 12.3404C34.866 12.6418 34.9981 12.8826 35.1757 13.1172C35.3894 13.3994 35.6256 13.6681 35.8754 13.9191C36.2245 14.2698 36.5739 14.6201 36.9234 14.9703C38.1645 16.2144 39.4065 17.4543 40.6468 18.695C40.861 18.9091 41.0755 19.1236 41.2728 19.3214C42.0271 20.076 42.1895 20.971 41.7838 21.775C41.7461 21.8443 41.7043 21.9132 41.6575 21.9821C41.5554 22.1396 41.4352 22.2877 41.2937 22.4296C40.9865 22.7372 40.6788 23.0448 40.3712 23.3524C39.4373 24.288 38.5033 25.2236 37.5673 26.1571C37.1354 26.5907 36.7035 27.0242 36.2692 27.4557L36.1494 27.5771C36.0268 27.6989 35.9037 27.8204 35.7811 27.9422C35.7483 27.9754 35.6465 28.0771 35.4858 28.2383L35.3685 28.3527C35.1474 28.5685 34.8763 28.7547 34.5957 28.8843C34.1388 29.0947 33.7495 29.0545 33.4784 28.7818C33.3578 28.662 33.2602 28.4963 33.1905 28.2863C33.076 27.9414 33.049 27.564 33.0067 27.1981C32.8669 25.9845 32.4292 24.9279 31.6077 24.1051C31.4239 23.9209 31.2205 23.7487 30.9973 23.5895Z" fill="#00215B" stroke="white" stroke-width="4" mask="url(#path-1-inside-1_38_1012)"/>
</svg>
