<svg width="61" height="67" viewBox="0 0 61 67" fill="none" xmlns="http://www.w3.org/2000/svg">
<path fill-rule="evenodd" clip-rule="evenodd" d="M49.8622 30.0481L49.8622 64.7499C49.8622 65.4914 49.2276 66.0931 48.4456 66.0931H41.2338C40.4518 66.0931 39.8172 65.4914 39.8172 64.7494L39.8172 31.7273C39.8172 30.9858 40.4518 30.384 41.2338 30.384H43.0052L43.0052 12.0458C43.0052 11.3043 43.6398 10.7021 44.4218 10.7021L53.0358 10.7021C54.8777 10.7021 56.1671 9.04973 56.9179 7.70647L48.6721 7.70647C47.8902 7.70647 47.2555 7.10471 47.2555 6.36275V3.05808L25.7197 3.05808L8.63294 10.2187L30.8485 10.2187C31.6305 10.2187 32.2656 10.8204 32.2656 11.5619V12.7982H33.9799C34.7619 12.7982 35.3965 13.4 35.3965 14.1415C35.3965 14.883 34.7619 15.4847 33.9799 15.4847H32.2656V18.7362H33.9799C34.7619 18.7362 35.3965 19.3384 35.3965 20.0799C35.3965 20.8214 34.7619 21.4231 33.9799 21.4231H32.2656V24.6746H33.9799C34.7619 24.6746 35.3965 25.2763 35.3965 26.0178C35.3965 26.7593 34.7619 27.3611 33.9799 27.3611H32.2656L32.2656 30.384H33.4412C34.2232 30.384 34.8583 30.9858 34.8583 31.7273L34.8583 64.7494C34.8583 65.4909 34.2232 66.0927 33.4412 66.0927H25.2944C24.5124 66.0927 23.8778 65.4909 23.8778 64.7494L23.8778 44.3961C19.6894 42.4775 15.2408 41.1219 10.6587 40.3658C3.4614 39.2506 1.56282 34.2531 1.56282 31.7678C1.56282 31.0258 2.19744 30.4241 2.97944 30.4241L29.4319 30.4241L29.4319 12.9594L1.9171 12.9594C1.23687 12.9739 0.643055 12.5278 0.5 11.8979V11.6156C0.504322 11.0849 0.837475 10.6056 1.35016 10.3935L24.8551 0.492174C25.0337 0.415247 25.2267 0.373825 25.4221 0.371094L48.6721 0.371094C49.4541 0.371094 50.0892 0.972854 50.0888 1.71436V5.01949L59.0147 4.92572C59.1679 4.92026 59.3224 4.93755 59.4698 4.97806C60.2206 5.18745 60.6512 5.93305 60.4318 6.64497C60.3469 6.95404 58.3067 13.3626 53.0502 13.3626H45.8672V21.2083L53.7731 21.2083C59.4401 21.4905 60.4885 28.2478 60.4885 28.53C60.4971 28.5919 60.5 28.6552 60.5 28.7166C60.4942 29.4581 59.8539 30.0549 59.0719 30.0481L49.8622 30.0481ZM32.0247 35.7581V33.0712L4.66589 33.0575C5.19011 34.5892 6.69168 36.9803 11.1263 37.6653C16.3008 38.5252 21.3062 40.1238 25.9746 42.4079C26.4297 42.6442 26.713 43.0984 26.7115 43.59L26.7115 63.3793H32.0247V62.1967H30.3104C29.5279 62.1967 28.8933 61.5949 28.8933 60.8534C28.8933 60.1119 29.5279 59.5102 30.3104 59.5102H32.0247V56.2588H30.3104C29.5279 56.2588 28.8933 55.657 28.8933 54.9155C28.8933 54.174 29.5279 53.5718 30.3104 53.5718H32.0247V50.3209H30.3104C29.5279 50.3209 28.8933 49.7191 28.8933 48.9776C28.8933 48.2357 29.5279 47.6339 30.3104 47.6339H32.0247L32.0247 44.383H30.3104C29.5279 44.383 28.8933 43.7812 28.8933 43.0393C28.8933 42.2978 29.5279 41.696 30.3104 41.696H32.0247V38.4451H30.3104C29.5279 38.4451 28.8933 37.8429 28.8933 37.1014C28.8933 36.3599 29.5279 35.7581 30.3104 35.7581H32.0247ZM45.8384 30.3842V23.828L53.6738 23.828C55.7279 23.9354 56.7624 25.87 57.2583 27.3075L48.4311 27.3075C47.6491 27.3075 47.0145 27.9093 47.0145 28.6512V30.3304L45.8384 30.3842ZM42.6509 33.071L42.6509 63.4061H47.0284L47.0284 33.071H42.6509Z" fill="#D2153D"/>
</svg>
