<svg width="62" height="68" viewBox="0 0 62 68" fill="none" xmlns="http://www.w3.org/2000/svg">
<path fill-rule="evenodd" clip-rule="evenodd" d="M19.8829 66.1753L19.8829 19.4496L43.1004 19.4496C43.873 19.4496 44.5 18.8502 44.5 18.111V2.17883C44.5 1.43969 43.873 0.839844 43.1004 0.839844L1.89964 0.839844C1.12701 0.839844 0.5 1.43969 0.5 2.17883L0.5 66.1753C0.5 66.9144 1.12701 67.5143 1.89964 67.5143L18.4832 67.5143C19.2558 67.5143 19.8829 66.9144 19.8829 66.1753ZM41.7007 3.51733V16.7719L19.0571 16.7719L5.27234 3.51733L41.7007 3.51733ZM3.29932 5.41858L3.29932 64.8367L17.0841 65.024V60.6055H13.6132C12.8406 60.6055 12.2136 60.0061 12.2136 59.267C12.2136 58.5279 12.8406 57.928 13.6132 57.928H17.0841V55.2505H13.6132C12.8406 55.2505 12.2136 54.6507 12.2136 53.9115C12.2136 53.1724 12.8406 52.5725 13.6132 52.5725H17.0841V49.895H10.6466C9.87394 49.895 9.24693 49.2952 9.24693 48.556C9.24693 47.8173 9.87394 47.2175 10.6466 47.2175H17.0841L17.0841 44.5395H13.6132C12.8406 44.5395 12.2136 43.9397 12.2136 43.201C12.2136 42.4619 12.8406 41.862 13.6132 41.862H17.0841V39.1845H13.6132C12.8406 39.1845 12.2136 38.5847 12.2136 37.8455C12.2136 37.1064 12.8406 36.5065 13.6132 36.5065H17.0841V33.829H10.6466C9.87394 33.829 9.24693 33.2292 9.24693 32.49C9.24693 31.7509 9.87394 31.1515 10.6466 31.1515L17.0841 31.1515V28.4735L13.6132 28.4735C12.8406 28.4735 12.2136 27.8737 12.2136 27.1345C12.2136 26.3959 12.8406 25.796 13.6132 25.796L17.0841 25.796V23.118L13.6132 23.118C12.8406 23.118 12.2136 22.5187 12.2136 21.7795C12.2136 21.0404 12.8406 20.4405 13.6132 20.4405L17.0841 20.4405V18.6065L3.29932 5.41858Z" fill="#D2153D"/>
<path fill-rule="evenodd" clip-rule="evenodd" d="M21.5 34.5667L21.5 34.5702L21.5 34.5804V34.5667ZM21.5 34.5702C21.5037 34.857 21.602 35.1359 21.7806 35.3653L31.7037 48.412C31.7037 48.412 31.816 48.4932 31.8721 48.5473C31.8939 48.5684 31.9094 48.5895 31.9242 48.6098C31.9475 48.6416 31.9694 48.6715 32.0124 48.6964L51.4509 62.4876C52.895 63.726 54.9512 64.048 56.7278 63.3132C57.6639 62.8651 58.4653 62.1954 59.058 61.3643L60.2367 59.7809C61.0044 58.8443 61.4467 57.698 61.5 56.5055C61.4424 54.8464 60.533 53.3236 59.0718 52.4452L39.5772 38.7081C39.4973 38.6636 39.4116 38.6283 39.3246 38.5999C39.3246 38.5999 39.2404 38.5999 39.1981 38.5187L23.3527 33.2943C22.6187 33.0549 21.8215 33.4351 21.5747 34.1429C21.5263 34.2805 21.5012 34.4246 21.5 34.5702ZM57.4155 54.6651C58.1299 55.0532 58.6099 55.7462 58.7069 56.5324C58.6479 57.1512 58.3939 57.7369 57.9773 58.2108L56.7981 59.7538C56.4866 60.2111 56.0628 60.589 55.5629 60.85L55.5533 60.8542C55.2911 60.9668 54.5208 61.2977 53.1209 60.3088L51.858 59.4153L54.0051 56.6003L56.1384 53.7716L57.4155 54.6651ZM52.5597 53.8937L53.8792 52.1613L39.0858 41.6992L34.7911 47.3295L49.5845 57.7916L50.9035 56.0725L39.4792 47.952C39.4297 47.9208 39.3836 47.8882 39.3389 47.8515C38.7438 47.374 38.6634 46.52 39.1591 45.9462C39.6542 45.3723 40.5399 45.2939 41.1349 45.7728L52.5597 53.8937ZM36.5178 40.481L32.8263 45.3264L30.5388 42.3216L32.8543 39.2765L36.5178 40.481ZM28.7984 40.0342L30.0756 38.3563L26.679 37.2463L28.7984 40.0342Z" fill="#D2153D"/>
</svg>
