<svg width="61" height="65" viewBox="0 0 61 65" fill="none" xmlns="http://www.w3.org/2000/svg">
<path fill-rule="evenodd" clip-rule="evenodd" d="M60.1253 30.726L57.4018 29.6338V27.8973C57.4401 17.2392 50.2284 7.72977 39.4391 4.21257V1.76521C39.4391 1.03876 38.8068 0.449219 38.0283 0.449219H22.9296C22.1511 0.449219 21.5189 1.03876 21.5189 1.76521V4.22551C10.7295 7.7427 3.51785 17.2521 3.55611 27.9103V29.6602L0.860812 30.726C0.338586 30.9316 0 31.4092 0 31.9367V38.8449C0 39.5709 0.632218 40.1604 1.41125 40.1604H3.24574V42.7924C3.24574 43.5184 3.87748 44.108 4.65651 44.108H9.72239C10.2035 45.7553 10.9103 47.3398 11.8247 48.8185L8.24084 52.1609C7.69327 52.6738 7.69327 53.5028 8.24084 54.0161L14.2378 59.6082C14.7878 60.1189 15.6768 60.1189 16.2273 59.6082L19.8111 56.2663C21.3931 57.119 23.0865 57.7767 24.8488 58.2267V62.9506C24.8488 63.6766 25.481 64.2662 26.26 64.2662H34.7261C35.5051 64.2662 36.1374 63.6766 36.1374 62.9506V58.2267C37.9039 57.7781 39.6026 57.1203 41.1889 56.2663L44.7732 59.6082C45.3232 60.1189 46.2122 60.1189 46.7626 59.6082L52.7596 54.0161C53.3072 53.5028 53.3072 52.6738 52.7596 52.1609L49.1753 48.8185C50.0897 47.3398 50.797 45.7553 51.2781 44.108H56.3435C57.1225 44.108 57.7547 43.5184 57.7547 42.7924V40.1604H59.5892C60.3683 40.1604 61 39.5709 61 38.8449V31.9367C60.9971 31.4052 60.6519 30.9275 60.1253 30.726ZM24.3126 3.09412H36.6171V25.0811H24.3408L24.3126 3.09412ZM50.2479 41.4765H54.9465L54.9327 40.1605H42.0215C41.3778 45.1132 37.1913 49.0161 31.8801 49.6172C25.5049 50.3397 19.7097 46.1054 18.9364 40.1605H6.03955V41.4765H10.7381C11.4153 41.4617 12.0064 41.8988 12.1494 42.5155C12.6415 44.5695 13.5305 46.5224 14.7739 48.2789C15.1364 48.7989 15.0589 49.4843 14.5903 49.9236L11.2178 53.0684L15.211 56.7925L18.5835 53.6477C19.055 53.2107 19.7901 53.1384 20.3477 53.4765C22.2424 54.6266 24.3466 55.4422 26.556 55.8846C27.2179 56.0175 27.6866 56.5687 27.6708 57.2001V61.6739H33.3148V57.2398C33.2995 56.6084 33.7677 56.0567 34.4296 55.9238C36.6395 55.4806 38.7432 54.6645 40.6384 53.5162C41.196 53.1777 41.9311 53.2504 42.4021 53.687L45.7746 56.8318L49.8104 53.0947L46.4379 49.9499C45.9697 49.5107 45.8918 48.8252 46.2547 48.3053C47.4866 46.538 48.3613 44.5762 48.8367 42.5155C48.9792 41.8988 49.5708 41.4617 50.2479 41.4765ZM21.8149 40.1605H39.1851C38.4089 44.6369 33.8877 47.6792 29.0878 46.9555C25.3428 46.3909 22.4065 43.6527 21.801 40.1605H21.8149ZM2.80811 37.529H58.1918V32.8314L55.4687 31.7392C54.9465 31.5341 54.6079 31.0565 54.6079 30.5289V27.8969C54.6476 18.6957 48.6406 10.4086 39.4672 7.01489V26.3972C39.4672 27.1232 38.835 27.7128 38.056 27.7128H22.9296C22.1505 27.7128 21.5188 27.1232 21.5188 26.3972V7.01489C12.3607 10.4099 6.36087 18.6809 6.39195 27.8706V30.5022C6.39195 31.0302 6.05337 31.5078 5.53114 31.7129L2.80811 32.805V37.529Z" fill="#D2153D"/>
</svg>
