<svg width="87" height="74" viewBox="0 0 87 74" fill="none" xmlns="http://www.w3.org/2000/svg">
<path d="M2 60.0536L20 71.5538H69.5L85 60.0537M2 60.0536V49.5538L6.5 47.5538M2 60.0536C3.8776 59.736 5.70884 59.4367 7.5 59.1558M85 60.0537V51.0537C83.9492 48.0076 82.6149 47.3124 79 47.5538M85 60.0537C82.8687 59.7158 80.8846 59.3993 79 59.1043M6.5 47.5538L7.5 59.1558M6.5 47.5538C6.5035 28.5675 10.6262 19.7447 24.5 11.0538L24.5167 11.5537M7.5 59.1558C13.1682 58.2669 18.4351 57.5624 23.5 57.0466M25 26.0538C24.1311 27.3659 23.8836 28.2267 24 30.0538L23.5 57.0466M25 26.0538C27.3941 22.0664 29.5286 19.4258 32 17.7339M25 26.0538L24.5167 11.5537M23.5 57.0466C36.6964 55.7028 48.5213 55.6398 62.5 56.9331M62.5 56.9331C62.3418 45.9139 62.8248 39.3254 61.4415 29.0538M62.5 56.9331C68.0197 57.4437 73.007 58.166 79 59.1043M61.4415 29.0538C61.3115 28.0885 61.165 27.0908 61 26.0538C58.8859 22.5126 56.9273 20.0865 54.5 18.4139M61.4415 29.0538V10.5537M54.5 6.05376C54.8188 4.30194 57 3.55375 57.5 3.55375C58 3.55375 60.6688 4.33075 61.4415 6.05376V10.5537M54.5 6.05376V18.4139M54.5 6.05376H48.5M54.5 18.4139C52.801 17.2431 50.8723 16.4415 48.5 15.8853M48.5 6.05376V15.8853M48.5 6.05376C47.8196 2.45758 46.4356 1.83069 43 2.05376C39.9887 1.77955 38.7039 2.47217 37.5 6.05376V15.5102M48.5 15.8853C46.8926 15.5083 45.0814 15.244 43 15.0538C40.9246 15.0629 39.1175 15.1975 37.5 15.5102M37.5 15.5102C35.4061 15.915 33.6298 16.6182 32 17.7339M37 6.05376C34.8615 5.5937 33.7339 5.72775 32 7.55375M32 7.55375V17.7339M32 7.55375C31.0433 5.20889 30.0928 4.57612 28 4.05375C25.4733 5.22149 24.9223 6.02576 24.5 7.55375L24.5167 11.5537M79 47.5538V59.1043M79 47.5538V35.0537C76.1491 23.9633 73.6933 18.0695 61.4415 10.5537M29 37.0537V52.5537" stroke="#D2153D" stroke-width="3"/>
</svg>
