<svg width="88" height="87" viewBox="0 0 88 87" fill="none" xmlns="http://www.w3.org/2000/svg">
<path d="M65.5 1.55469H86V82.0547C85.0409 83.7981 84.3257 84.4289 82.5 84.5547C80.4702 84.2014 79.8614 83.6083 79.5 82.0547V72.0547C79.1114 71.0304 78.6987 70.5336 77 70.0547C75.7445 70.2729 75.1908 70.6879 74.5 72.0547V76.0547C73.9428 77.5846 73.3373 78.0581 72 78.5547C70.5363 77.9483 69.8024 77.5041 69 76.0547V64.0547C66.7353 63.1225 65.6165 62.4164 65 59.5547L65.5 34.5547M65.5 1.55469H50M65.5 1.55469V34.5547M50 1.55469H46.5C43.2069 7.42281 40.8399 9.98668 35.5 13.0547L17.5 11.0547C9.39598 12.1018 5.86829 13.3328 2 17.0547C5.42073 22.7827 9.0972 23.8752 17.5 23.5547L35.5 22.0547C40.8069 25.1908 43.3012 27.7812 46.5 34.5547H50M50 1.55469V34.5547M50 34.5547H65.5M72 8.05469V49.5547M78 5.55469V55.2913M77 59.0547V61.0547M77 59.0547H78H79M77 59.0547L79 61.0547M77 61.0547H78H79M77 61.0547L79 59.0547M79 61.0547V59.0547M71 51.0547H73M71 51.0547V53.0547M71 51.0547L73 53.0547M73 51.0547V53.0547M73 51.0547L71 53.0547M73 53.0547H71" stroke="#D2153D" stroke-width="3"/>
</svg>
